<svg width="600" height="400" viewBox="0 0 600 400" fill="none" xmlns="http://www.w3.org/2000/svg">
<g clip-path="url(#clip0_827_23381)">
<path opacity="0.5" fill-rule="evenodd" clip-rule="evenodd" d="M164.731 432.821C245.325 354.522 295.348 246.549 295.348 127.81L295.358 -201H370.729L370.74 127.81C370.74 185.633 380.188 253.397 397.5 305.908C414.815 253.397 424.264 185.633 424.264 127.81L424.271 -201H499.642L499.653 127.81C499.653 246.549 549.676 354.522 630.271 432.821C678.351 479.535 737.312 515.665 803 537.225V613.914C716.489 590.045 638.984 544.845 576.977 484.603C530.378 439.326 492.529 385.548 466.165 325.95C446.492 377.592 424.783 426.493 397.676 463.729L397.5 463.976L397.323 463.729C370.217 426.493 348.507 377.592 328.837 325.95C302.471 385.548 264.625 439.326 218.024 484.603C156.017 544.845 78.513 590.045 -8 613.914V537.225C57.6909 515.665 116.648 479.535 164.731 432.821ZM431.73 511.05C447.801 530.97 465.091 549.921 483.488 567.798C569.569 651.43 679.888 711.514 803 737V661.88C700.721 637.687 609.084 586.262 536.785 516.022C513.046 492.96 491.394 467.87 472.136 441.05L431.73 511.05ZM715.35 343.192C656.617 286.128 620.159 207.45 620.159 120.937V46.848H544.777V120.937C544.777 227.668 589.692 324.672 662.057 394.974C701.73 433.517 749.674 464.05 803 483.768V404.021C770.385 388.542 740.784 367.897 715.35 343.192ZM174.842 46.848H250.222V120.937C250.222 227.668 205.307 324.672 132.948 394.974C93.271 433.517 45.3267 464.05 -8 483.768V404.021C24.6159 388.542 54.2196 367.897 79.6493 343.192C138.385 286.128 174.842 207.45 174.842 120.937V46.848ZM258.216 516.022C281.955 492.96 303.607 467.87 322.865 441.05L363.273 511.05C347.202 530.97 329.91 549.921 311.512 567.798C225.433 651.43 115.114 711.514 -8 737V661.88C94.2793 637.687 185.915 586.262 258.216 516.022Z" fill="url(#paint0_linear_827_23381)"/>
</g>
<defs>
<linearGradient id="paint0_linear_827_23381" x1="398" y1="-7.5" x2="398" y2="410" gradientUnits="userSpaceOnUse">
<stop stop-color="white" stop-opacity="0"/>
<stop offset="1" stop-color="white"/>
</linearGradient>
<clipPath id="clip0_827_23381">
<rect width="600" height="400" fill="white"/>
</clipPath>
</defs>
</svg>
