<svg width="123" height="117" viewBox="0 0 123 117" fill="none" xmlns="http://www.w3.org/2000/svg">
<path d="M16.12 12H18.844L19.396 8.484H25.144L24.592 12H27.316L28.732 3.072H26.008L25.492 6.324H19.744L20.26 3.072H17.536L16.12 12ZM32.093 10.668C31.229 10.668 31.001 10.332 31.001 10.008C31.001 9.624 31.217 9.456 32.009 9.324L34.565 8.928L34.529 9.132C34.349 10.008 33.449 10.668 32.093 10.668ZM31.421 12.12C33.137 12.12 34.013 11.46 34.289 11.112C34.325 11.688 34.685 12 35.165 12H37.265L37.553 10.248H37.229C36.941 10.248 36.881 10.104 36.917 9.924L37.277 7.68C37.433 6.624 37.193 5.364 33.569 5.364H33.005C29.441 5.364 29.129 6.768 29.033 7.572H31.433C31.493 7.356 31.589 6.852 33.185 6.852H33.221C34.709 6.852 34.805 7.128 34.805 7.38C34.805 7.584 34.697 7.704 34.373 7.74L31.469 7.992C30.449 8.076 29.801 8.232 29.333 8.532C28.661 8.952 28.493 9.648 28.493 10.224C28.493 11.244 29.213 12.12 31.277 12.12H31.421ZM42.7534 12H45.3694L45.8374 9.072L47.9374 12H51.0814L48.4294 8.472L51.7414 5.544H48.7774L45.9934 8.1L46.4014 5.544H43.7854L43.3774 8.112L41.4094 5.544H38.5654L40.8814 8.412L37.0414 12H40.1854L43.2214 9.06L42.7534 12ZM56.1323 12H57.5123L60.4763 8.292L59.8883 12H62.5043L63.5363 5.544H60.4643L57.3923 9.36L55.5323 5.544H52.3523L51.3203 12H53.7563L54.3443 8.316L56.1323 12ZM63.5312 12H66.1593L70.9593 7.968L70.3233 12H72.9393L73.9713 5.544H71.3433L66.5433 9.576L67.1793 5.544H64.5633L63.5312 12ZM75.9407 13.176C76.2527 12.84 76.6847 12.084 76.7447 11.628L77.0207 9.9H74.1887L73.8527 12H75.0767C74.9447 12.336 74.7287 12.792 74.4527 13.176H75.9407ZM22.444 20.544L22.036 23.088C21.796 23.148 21.22 23.184 20.776 23.184C19.432 23.184 18.976 22.968 19.132 21.936L19.348 20.544H16.732L16.48 22.092C16.132 24.168 17.08 24.96 19.948 24.96C20.74 24.96 21.556 24.852 21.772 24.792L21.412 27H24.028L25.06 20.544H22.444ZM27.5426 27H30.1586L30.9026 22.32H33.6026L33.8906 20.544H25.8746L25.5866 22.32H28.2866L27.5426 27ZM39.0479 27.192C42.8879 27.192 43.5959 25.368 43.7879 23.892C43.8119 23.676 43.8239 23.472 43.8239 23.292C43.8239 21.828 42.9479 20.364 39.5039 20.364H38.6879C35.0399 20.364 34.1279 22.056 33.9359 23.592C33.8999 23.784 33.8999 24 33.8999 24.18C33.8999 25.596 34.8599 27.192 38.2319 27.192H39.0479ZM38.6879 25.44C37.0799 25.44 36.5759 24.672 36.5759 23.964C36.5759 23.04 37.0439 22.08 39.0239 22.08H39.0359C40.6679 22.08 41.1599 22.788 41.1599 23.508C41.1599 24.504 40.6079 25.44 38.6879 25.44ZM54.179 24.288C54.215 24.048 54.239 23.832 54.239 23.604C54.239 21.636 52.523 20.844 50.723 20.844H50.651C48.839 20.844 47.663 21.552 47.183 22.032C47.183 21.996 47.195 21.984 47.195 21.972C47.423 20.652 48.203 20.112 50.183 20.112H51.815C53.951 20.112 54.707 19.416 54.959 17.916H52.367C52.355 17.976 52.319 18.024 52.259 18.06C52.163 18.144 52.007 18.204 51.683 18.204H50.231C45.971 18.204 44.675 20.436 44.447 22.8C44.411 23.124 44.399 23.436 44.399 23.76C44.399 25.428 45.191 27.18 48.887 27.18H49.127C52.739 27.18 53.891 25.668 54.179 24.288ZM47.099 24.144C47.099 23.148 48.119 22.56 49.499 22.56C50.927 22.56 51.443 23.088 51.443 23.868C51.443 24.84 50.495 25.44 49.043 25.44C47.651 25.44 47.099 24.948 47.099 24.144ZM63.3661 24.468C63.3661 23.196 62.5381 22.224 60.2701 22.224H57.7861L58.0621 20.544H55.4461L54.4141 27H60.0421C62.3341 27 63.3661 25.86 63.3661 24.468ZM57.2941 25.356L57.5341 23.868H59.6581C60.5341 23.868 60.6901 24.204 60.6901 24.588C60.6901 25.008 60.3781 25.356 59.5621 25.356H57.2941ZM67.1581 20.544H64.5421L63.5221 27H66.1381L67.1581 20.544ZM21.016 42.18C25.048 42.18 25.516 40.212 25.66 39.276H22.984C22.888 39.564 22.504 40.464 20.788 40.464H20.74C19.384 40.464 18.904 39.78 18.904 38.976C18.904 38.16 19.372 37.056 21.148 37.056H21.184C22.996 37.056 23.116 37.968 23.152 38.22H25.828C25.924 37.2 25.54 35.364 21.604 35.364H20.932C17.452 35.364 16.468 37.068 16.276 38.46C16.24 38.748 16.228 38.952 16.228 39.18C16.228 40.74 17.212 42.18 20.368 42.18H21.016ZM30.7026 42H32.0826L35.0466 38.292L34.4586 42H37.0746L38.1066 35.544H35.0346L31.9626 39.36L30.1026 35.544H26.9226L25.8906 42H28.3266L28.9146 38.316L30.7026 42ZM43.4776 42.192C47.3176 42.192 48.0256 40.368 48.2176 38.892C48.2416 38.676 48.2536 38.472 48.2536 38.292C48.2536 36.828 47.3776 35.364 43.9336 35.364H43.1176C39.4696 35.364 38.5576 37.056 38.3656 38.592C38.3296 38.784 38.3296 39 38.3296 39.18C38.3296 40.596 39.2896 42.192 42.6616 42.192H43.4776ZM43.1176 40.44C41.5096 40.44 41.0056 39.672 41.0056 38.964C41.0056 38.04 41.4736 37.08 43.4536 37.08H43.4656C45.0976 37.08 45.5896 37.788 45.5896 38.508C45.5896 39.504 45.0376 40.44 43.1176 40.44ZM50.652 42H53.268L54.012 37.32H56.712L57 35.544H48.984L48.696 37.32H51.396L50.652 42ZM62.4693 37.056C64.0053 37.056 64.5093 37.716 64.5093 38.556C64.5093 39.432 64.0293 40.452 62.2413 40.452H62.1693C60.6813 40.452 59.9492 39.672 59.9492 38.94C59.9492 38.748 59.9733 38.604 60.0093 38.46C60.1653 37.848 60.8853 37.056 62.4093 37.056H62.4693ZM57.8373 35.544L56.4572 44.256H59.0733L59.5773 41.064C59.8652 41.388 60.7653 42.156 62.5893 42.156H62.7333C65.5893 42.156 66.9453 40.8 67.1373 39.036C67.1733 38.712 67.1733 38.508 67.1733 38.328C67.1733 36.792 66.2013 35.388 63.5973 35.388H63.4413C61.5453 35.388 60.5853 36.168 60.3213 36.396L60.4533 35.544H57.8373ZM72.5598 36.864C73.9038 36.864 74.4798 37.248 74.5638 37.956H70.3278C70.6038 37.272 71.2158 36.864 72.5478 36.864H72.5598ZM74.3238 39.72C74.2158 39.924 73.8798 40.548 72.1758 40.548H72.1638C70.7358 40.548 70.1478 40.044 70.0998 39.288H76.9998C77.0358 39.084 77.0838 38.736 77.0838 38.316C77.0838 36.876 76.2798 35.364 73.0158 35.364H72.3078C68.9598 35.364 67.8678 36.864 67.6158 38.472C67.5798 38.7 67.5678 38.964 67.5678 39.168C67.5678 40.824 68.6118 42.18 71.7798 42.18H72.4278C76.2438 42.18 76.7838 40.596 76.9278 39.72H74.3238ZM79.3512 42H81.9672L82.7112 37.32H85.4112L85.6992 35.544H77.6832L77.3952 37.32H80.0952L79.3512 42ZM94.4325 39.468C94.4325 38.196 93.6045 37.224 91.3365 37.224H88.8525L89.1285 35.544H86.5125L85.4805 42H91.1085C93.4005 42 94.4325 40.86 94.4325 39.468ZM88.3605 40.356L88.6005 38.868H90.7245C91.6005 38.868 91.7565 39.204 91.7565 39.588C91.7565 40.008 91.4445 40.356 90.6285 40.356H88.3605ZM25 55.008C25 54.156 24.424 53.7 23.5 53.52C24.568 53.316 25.18 52.776 25.18 52.044C25.18 51.072 24.232 50.544 21.748 50.544H17.032L16 57H21.4C23.836 57 25 56.256 25 55.008ZM19.264 52.932L19.42 51.96H21.496C22.228 51.96 22.528 52.092 22.528 52.416C22.528 52.764 22.18 52.932 21.352 52.932H19.264ZM18.856 55.548L19.048 54.288H21.244C22.012 54.288 22.324 54.48 22.324 54.9C22.324 55.284 21.976 55.548 21.064 55.548H18.856ZM25.3633 57H27.9913L32.7913 52.968L32.1553 57H34.7713L35.8033 50.544H33.1753L28.3753 54.576L29.0113 50.544H26.3953L25.3633 57ZM35.0967 58.44H37.5807L37.8087 57H43.8087L43.5807 58.44H46.0767L46.5927 55.224H45.2727L46.0167 50.544H37.9167C37.4727 53.364 37.0407 54.384 36.5607 55.224H35.6127L35.0967 58.44ZM39.1647 55.224C39.5367 54.492 39.8247 53.616 40.0527 52.26H43.1247L42.6567 55.224H39.1647ZM51.8763 51.864C53.2203 51.864 53.7963 52.248 53.8803 52.956H49.6443C49.9203 52.272 50.5323 51.864 51.8643 51.864H51.8763ZM53.6403 54.72C53.5323 54.924 53.1963 55.548 51.4923 55.548H51.4803C50.0523 55.548 49.4643 55.044 49.4163 54.288H56.3163C56.3523 54.084 56.4003 53.736 56.4003 53.316C56.4003 51.876 55.5963 50.364 52.3323 50.364H51.6243C48.2763 50.364 47.1843 51.864 46.9323 53.472C46.8963 53.7 46.8843 53.964 46.8843 54.168C46.8843 55.824 47.9283 57.18 51.0963 57.18H51.7443C55.5603 57.18 56.1003 55.596 56.2443 54.72H53.6403ZM61.9229 57.192C65.7629 57.192 66.4709 55.368 66.6629 53.892C66.6869 53.676 66.6989 53.472 66.6989 53.292C66.6989 51.828 65.8229 50.364 62.3789 50.364H61.5629C57.9149 50.364 57.0029 52.056 56.8109 53.592C56.7749 53.784 56.7749 54 56.7749 54.18C56.7749 55.596 57.7349 57.192 61.1069 57.192H61.9229ZM61.5629 55.44C59.9549 55.44 59.4509 54.672 59.4509 53.964C59.4509 53.04 59.9189 52.08 61.8989 52.08H61.9109C63.5429 52.08 64.0349 52.788 64.0349 53.508C64.0349 54.504 63.4829 55.44 61.5629 55.44Z" fill="#141414"/>
<path d="M52 70C52 69.4477 51.5523 69 51 69C50.4477 69 50 69.4477 50 70H52ZM15.2929 104.293C14.9024 104.683 14.9024 105.317 15.2929 105.707L21.6569 112.071C22.0474 112.462 22.6805 112.462 23.0711 112.071C23.4616 111.681 23.4616 111.047 23.0711 110.657L17.4142 105L23.0711 99.3431C23.4616 98.9526 23.4616 98.3195 23.0711 97.9289C22.6805 97.5384 22.0474 97.5384 21.6569 97.9289L15.2929 104.293ZM50 70C50 88.7777 34.7777 104 16 104V106C35.8823 106 52 89.8823 52 70H50Z" fill="#141414"/>
</svg>
