<svg width="150" height="45" viewBox="0 0 150 45" fill="none" xmlns="http://www.w3.org/2000/svg">
<path fill-rule="evenodd" clip-rule="evenodd" d="M50.269 17.013C50.4458 16.0621 50.6353 15.085 50.8276 14.0937C51.4481 10.8947 52.0972 7.54779 52.4407 4.45443H56.2808V23.2501H53.7877V15.8141L54.0814 9.09561C53.7237 11.2569 52.3193 19.2228 50.5354 23.0392V23.051H50.269H50.0027V23.0392C48.2186 19.2228 46.8145 11.2569 46.4568 9.09561L46.7505 15.8141V23.2501H44.2574V4.45443H48.0975C48.4408 7.54796 49.09 10.8951 49.7105 14.0942L49.7105 14.0943L49.7105 14.0944L49.7106 14.0945C49.9028 15.0855 50.0922 16.0623 50.269 17.013ZM108.133 7.73143V10.0359C108.133 11.5343 107.518 12.6242 106.541 13.3266C107.59 14.1618 108.133 15.4587 108.133 17.0653V23.2163C107.243 23.2163 106.353 23.2146 105.462 23.213H105.462H105.461H105.461H105.461H105.461L105.457 23.213C104.613 23.2114 103.768 23.2099 102.923 23.2097V23.2163H100.067V4.4208H102.923V4.42733C103.756 4.42711 104.589 4.4256 105.421 4.42408L105.422 4.42408C106.326 4.42244 107.23 4.4208 108.133 4.4208V7.73143ZM102.923 14.8373V20.5312H105.275C105.275 19.9221 105.276 19.3135 105.276 18.705V18.7047C105.276 18.0959 105.277 17.487 105.277 16.8772C105.277 14.9603 103.988 14.7781 102.923 14.8373ZM102.923 7.10582V12.1459C103.988 12.205 105.277 12.1409 105.277 10.224V8.51415H105.275V7.10582H102.923ZM92.4218 23.2163H89.5653V4.4208H92.4218H95.1355H98.0441V23.2163H95.1355H92.4218ZM95.1355 7.10582H92.4738V20.5312H95.1355V7.10582ZM61.1601 23.2163H58.3034V4.4208H61.1601H63.8735H66.7822V23.2163H63.8735H61.1601ZM63.8735 7.10582H61.2119V20.5312H63.8735V7.10582ZM112.879 23.2163H110.023V4.4208H118.501V11.9642H115.593V7.10582H112.879V20.5312H115.593V15.6727H118.501V23.2163H115.593H112.879ZM71.6614 23.2163H68.8048V4.4208H77.2835V11.9642H74.3749V7.10582H71.6614V20.5312H74.3749V15.6727H77.2835V23.2163H74.3749H71.6614ZM123.381 23.2501H120.524V4.45443H123.381V11.8206L123.855 11.8219C125.404 11.8259 125.904 10.1317 125.904 8.87459V4.45443H128.761V8.75301C128.761 10.7305 128.033 12.2118 126.618 13.1826C128.151 14.2712 128.761 15.6346 128.761 17.6118V23.2501H125.904V17.4904C125.904 16.2733 125.33 14.7985 123.878 14.8106L123.381 14.8146V23.2501ZM148.811 0V2.20172H142.526V0H148.811ZM141.337 23.2501V4.45443H143.881V15.437L146.816 4.45443H150V23.2501H147.429V10.1725L143.923 23.2738L141.337 23.2501ZM130.65 23.2501V4.45443H133.195V15.437L136.13 4.45443H139.314V23.2501H136.743V10.1725L133.237 23.2738L130.65 23.2501ZM82.1628 23.2501H79.3062V4.45443H82.1628V11.8206L82.6371 11.8219C84.1862 11.8259 84.6859 10.1317 84.6859 8.87459V4.45443H87.5427V8.75301C87.5427 10.7305 86.8156 12.2118 85.4 13.1826C86.933 14.2712 87.5427 15.6346 87.5427 17.6118V23.2501H84.6859V17.4904C84.6859 16.2733 84.1123 14.7985 82.6602 14.8106L82.1628 14.8146V23.2501ZM57.6046 44.9994H54.7481V26.2037H63.2269V44.9994H60.3183V28.8889H57.6046V44.9994ZM47.114 44.9994H44.2574V26.2037H52.7361V33.7473H49.8277V28.8889H47.114V42.3141H49.8277V37.4558H52.7361V44.9994H49.8277H47.114ZM68.0903 44.9994H65.2337V26.2037H68.0903H70.804H73.7124V44.9994H70.804H68.0903ZM70.804 28.8889H68.1423V42.3141H70.804V28.8889ZM84.5066 26.2037H93.336V28.8889H90.3496V44.9994H87.4931V28.8889H84.5066V26.2037ZM83.7208 32.7292V35.0336C83.7208 37.9254 82.234 39.9468 79.462 39.9468H78.5109V44.9994H75.6544V26.2037C77.4463 26.2137 79.2393 26.2104 81.0321 26.2071H81.0322H81.0323H81.0325H81.0326C81.9288 26.2054 82.8249 26.2037 83.7208 26.2037V32.7292ZM78.5109 28.8889V37.2616C79.5759 37.3207 80.8642 37.1386 80.8642 35.2216V33.5118H80.8627V28.8889H78.5109ZM21.597 37.6795C20.7886 36.9062 20.0288 36.0864 19.3226 35.2246L21.0981 32.1963C21.9444 33.3566 22.8958 34.442 23.939 35.4397C27.1159 38.4783 31.1426 40.703 35.637 41.7496V44.9994C30.2272 43.8968 25.3796 41.2976 21.597 37.6795ZM7.59017 31.8404C11.1316 28.4531 13.3297 23.7821 13.3297 18.6454L13.3302 4.4208H16.6421L16.6426 18.6454C16.6426 21.1468 17.0578 24.0783 17.8185 26.35C18.5793 24.0783 18.9946 21.1468 18.9946 18.6454L18.9949 4.4208H22.3068L22.3073 18.6454C22.3073 23.7821 24.5054 28.4531 28.0469 31.8404C30.1597 33.8612 32.7505 35.4243 35.637 36.357V39.6746C31.8355 38.642 28.4298 36.6866 25.7051 34.0805C23.6574 32.1218 21.9943 29.7953 20.8358 27.217C19.9713 29.4511 19.0174 31.5666 17.8263 33.1774L17.8185 33.1882L17.8107 33.1774C16.6196 31.5666 15.6657 29.4511 14.8013 27.217C13.6427 29.7953 11.9797 32.1218 9.93196 34.0805C7.20725 36.6866 3.80156 38.642 0 39.6746V36.357C2.88659 35.4243 5.47727 33.8612 7.59017 31.8404ZM31.7855 27.9629C29.2046 25.4943 27.6026 22.0906 27.6026 18.348V15.1429H24.2901V18.348C24.2901 22.9653 26.2638 27.1617 29.4437 30.203C31.187 31.8705 33.2937 33.1913 35.637 34.0443V30.5945C34.2038 29.9248 32.9031 29.0317 31.7855 27.9629ZM8.03447 15.1429H11.3468V18.348C11.3468 22.9653 9.37313 27.1617 6.19353 30.203C4.45005 31.8705 2.34328 33.1913 0 34.0443V30.5945C1.43321 29.9248 2.73406 29.0317 3.85149 27.9629C6.43245 25.4943 8.03447 22.0906 8.03447 18.348V15.1429ZM11.6981 35.4397C12.7412 34.442 13.6927 33.3566 14.5389 32.1963L16.3145 35.2246C15.6083 36.0864 14.8485 36.9062 14.04 37.6795C10.2575 41.2976 5.40988 43.8968 0 44.9994V41.7496C4.49436 40.703 8.52102 38.4783 11.6981 35.4397Z" fill="white"/>
</svg>
