<svg width="1440" height="760" viewBox="0 0 1440 760" fill="none" xmlns="http://www.w3.org/2000/svg">
<g clip-path="url(#clip0_805_30520)">
<path fill-rule="evenodd" clip-rule="evenodd" d="M524.83 506.409C592.406 441.133 634.349 351.117 634.349 252.125L634.357 -22H697.553L697.562 252.125C697.562 300.331 705.485 356.826 720 400.604C734.518 356.826 742.441 300.331 742.441 252.125L742.447 -22H805.643L805.652 252.125C805.652 351.117 847.595 441.133 915.172 506.409C955.486 545.354 1004.92 575.476 1060 593.45V657.385C987.463 637.485 922.478 599.803 870.487 549.58C831.415 511.832 799.679 466.998 777.574 417.312C761.079 460.366 742.876 501.134 720.148 532.177L720 532.383L719.852 532.177C697.124 501.134 678.921 460.366 662.428 417.312C640.321 466.998 608.588 511.832 569.515 549.58C517.524 599.803 452.539 637.485 380 657.385V593.45C435.08 575.476 484.513 545.354 524.83 506.409ZM748.701 571.628C762.176 588.235 776.673 604.034 792.098 618.938C864.275 688.661 956.774 738.752 1060 760V697.373C974.242 677.204 897.407 634.332 836.786 575.773C816.882 556.547 798.727 535.629 782.58 513.27L748.701 571.628ZM986.508 431.687C937.262 384.113 906.693 318.52 906.693 246.395V184.628H843.487V246.395C843.487 335.376 881.148 416.247 941.823 474.856C975.088 506.99 1015.29 532.444 1060 548.883V482.399C1032.65 469.494 1007.83 452.283 986.508 431.687ZM533.308 184.628H596.511V246.395C596.511 335.376 558.851 416.247 498.181 474.856C464.913 506.99 424.713 532.444 380 548.883V482.399C407.347 469.494 432.169 452.283 453.491 431.687C502.74 384.113 533.308 318.52 533.308 246.395V184.628ZM603.215 575.773C623.119 556.547 641.274 535.629 657.421 513.27L691.302 571.628C677.826 588.235 663.328 604.034 647.901 618.938C575.727 688.661 483.227 738.752 380 760V697.373C465.758 677.204 542.592 634.332 603.215 575.773Z" fill="white"/>
<rect x="1060" y="482.379" width="380" height="66.4624" fill="url(#paint0_linear_805_30520)"/>
<rect width="380" height="66.5475" transform="matrix(-1 0 0 1 380 482.4)" fill="url(#paint1_linear_805_30520)"/>
<rect x="1060" y="593.456" width="380" height="63.5441" fill="url(#paint2_linear_805_30520)"/>
<rect width="380" height="63.9215" transform="matrix(-1 0 0 1 380 593.467)" fill="url(#paint3_linear_805_30520)"/>
<rect x="1060" y="697.379" width="380" height="62.6211" fill="url(#paint4_linear_805_30520)"/>
<rect width="380" height="62.6341" transform="matrix(-1 0 0 1 380 697.366)" fill="url(#paint5_linear_805_30520)"/>
</g>
<defs>
<linearGradient id="paint0_linear_805_30520" x1="1060" y1="516.138" x2="1440" y2="516.138" gradientUnits="userSpaceOnUse">
<stop stop-color="white"/>
<stop offset="1" stop-color="white" stop-opacity="0"/>
</linearGradient>
<linearGradient id="paint1_linear_805_30520" x1="-5.15294e-07" y1="33.8019" x2="380" y2="33.8019" gradientUnits="userSpaceOnUse">
<stop stop-color="white"/>
<stop offset="1" stop-color="white" stop-opacity="0"/>
</linearGradient>
<linearGradient id="paint2_linear_805_30520" x1="1060" y1="625.732" x2="1440" y2="625.732" gradientUnits="userSpaceOnUse">
<stop stop-color="white"/>
<stop offset="1" stop-color="white" stop-opacity="0"/>
</linearGradient>
<linearGradient id="paint3_linear_805_30520" x1="-5.15294e-07" y1="32.4681" x2="380" y2="32.4681" gradientUnits="userSpaceOnUse">
<stop stop-color="white"/>
<stop offset="1" stop-color="white" stop-opacity="0"/>
</linearGradient>
<linearGradient id="paint4_linear_805_30520" x1="1060" y1="729.186" x2="1440" y2="729.186" gradientUnits="userSpaceOnUse">
<stop stop-color="white"/>
<stop offset="1" stop-color="white" stop-opacity="0"/>
</linearGradient>
<linearGradient id="paint5_linear_805_30520" x1="-5.15294e-07" y1="31.8141" x2="380" y2="31.8141" gradientUnits="userSpaceOnUse">
<stop stop-color="white"/>
<stop offset="1" stop-color="white" stop-opacity="0"/>
</linearGradient>
<clipPath id="clip0_805_30520">
<rect width="1440" height="760" fill="white"/>
</clipPath>
</defs>
</svg>
