<svg width="120" height="34" viewBox="0 0 120 34" fill="none" xmlns="http://www.w3.org/2000/svg">
<g clip-path="url(#clip0_909_25743)">
<path fill-rule="evenodd" clip-rule="evenodd" d="M27.1093 7.57306C29.2754 7.08445 31.5876 7.13317 33.6402 8.02896L33.7376 7.3935L41.0995 7.44222C42.1909 7.21394 43.347 7.19792 44.4544 7.45824L44.6987 7.52366L45.4322 2.91457H54.9274L54.2105 7.36146C54.7479 7.27936 55.2852 7.26333 55.8386 7.27935L56.5395 2.91457H66.002L65.4152 6.56246C65.6108 6.23672 65.8064 5.94368 66.0347 5.65065C67.7114 3.64748 69.8608 2.89788 72.4019 2.71899C73.9492 2.67026 75.4798 2.7517 76.9143 3.38649L76.9797 2.9139H86.4749L85.6926 7.73459C86.2312 7.57172 86.7512 7.4736 87.2886 7.39283C89.781 7.08311 92.4029 7.22996 94.3574 8.98882C96.1984 7.44156 98.8523 7.14852 101.165 7.31139C102.68 7.45757 104.243 7.86542 105.384 8.95612C106.686 7.89746 108.316 7.4736 109.96 7.31139C112.483 7.14852 115.041 7.42487 116.8 9.41269C117.598 10.4386 117.908 11.4319 117.974 12.7188C117.974 13.1747 117.941 13.5986 117.876 14.0538L116.931 19.9826H116.41C116.687 20.9271 116.703 21.8062 116.572 22.7674L116.051 25.9927C115.612 27.9632 114.701 29.4284 113.006 30.5531C110.906 31.7906 108.43 32.0022 106.035 31.6925C104.781 31.4976 103.463 31.0904 102.518 30.1947C100.466 31.7099 97.8591 31.9862 95.4007 31.7413C94.603 31.6438 93.8688 31.4803 93.1205 31.1712L93.0551 31.5617H86.5249C85.3842 31.8394 84.2601 31.8547 83.104 31.7573C82.6975 31.6919 82.2736 31.6278 81.8825 31.497V31.5617H72.3873L72.4353 31.2526C70.4655 31.9201 68.3469 31.9041 66.3444 31.4155C64.2598 30.8128 62.6144 29.5418 62.0944 27.3431L61.4256 31.561H55.6443L55.2532 31.4636C53.6565 31.9682 51.931 31.9515 50.3671 31.3334L50.3344 31.561H29.8615L29.8775 31.4469C29.3562 31.5944 28.8348 31.6758 28.2808 31.7399C25.6756 31.9842 22.8086 31.7399 20.9523 29.6713L20.431 31.5604H1.96191L3.26488 2.91457H28.4116L27.1093 7.57306Z" fill="white" stroke="white" stroke-width="3.81143" stroke-miterlimit="2.613" stroke-linejoin="round"/>
<path fill-rule="evenodd" clip-rule="evenodd" d="M27.1093 7.57306C29.2754 7.08445 31.5876 7.13317 33.6402 8.02896L33.7376 7.3935L41.0995 7.44222C42.1908 7.21394 43.347 7.19792 44.4543 7.45824L44.6987 7.52366L45.4322 2.91457H54.9274L54.2105 7.36146C54.7479 7.27936 55.2852 7.26333 55.8386 7.27935L56.5394 2.91457H66.0019L65.4152 6.56246C65.6108 6.23672 65.8064 5.94368 66.0346 5.65065C67.7114 3.64748 69.8608 2.89788 72.4019 2.71899C73.9492 2.67026 75.4798 2.7517 76.9142 3.38649L76.9783 2.9139H86.4749L85.6925 7.73459C86.2299 7.57172 86.7512 7.4736 87.2885 7.39283C89.781 7.08311 92.4029 7.22996 94.3574 8.98882C96.1983 7.44156 98.8523 7.14852 101.165 7.31139C102.68 7.45757 104.243 7.86542 105.384 8.95612C106.686 7.89746 108.316 7.4736 109.96 7.31139C112.483 7.14852 115.041 7.42487 116.8 9.41269C117.598 10.4386 117.908 11.4319 117.972 12.7188C117.972 13.1747 117.939 13.5986 117.875 14.0538L116.93 19.9826H116.409C116.687 20.9271 116.702 21.8062 116.572 22.7674L116.05 25.9921C115.611 27.9632 114.699 29.4284 113.005 30.5524C110.905 31.79 108.43 32.0022 106.035 31.6925C104.78 31.4969 103.462 31.0904 102.517 30.194C100.465 31.7099 97.8584 31.9862 95.4 31.7413C94.6023 31.6438 93.8681 31.4803 93.1198 31.1712L93.0544 31.5617H86.5242C85.3835 31.8394 84.2594 31.8547 83.1033 31.7573C82.6968 31.6919 82.2729 31.6271 81.8818 31.4963V31.5617H72.3866L72.4346 31.252C70.4648 31.9201 68.3462 31.9041 66.3437 31.4155C64.2591 30.8128 62.6137 29.5418 62.0937 27.3431L61.4249 31.561H55.6437L55.2525 31.4636C53.6558 31.9682 51.9304 31.9515 50.3664 31.3334L50.3337 31.561H29.8614L29.8775 31.4469C29.3561 31.5944 28.8348 31.6758 28.2808 31.7399C25.6755 31.9842 22.8086 31.7399 20.9523 29.6713L20.431 31.5604H1.96191L3.26488 2.91457H28.4116L27.1093 7.57306Z" fill="#191919"/>
<path fill-rule="evenodd" clip-rule="evenodd" d="M40.4464 17.8498H44.7785L45.6256 12.5238C45.7557 11.7095 45.5608 11.058 45.0228 10.5694C44.9253 10.488 44.8432 10.4065 44.7458 10.3418C44.2578 10 43.6384 9.82045 42.9222 9.82045C41.7167 9.82045 40.7888 10.0814 40.1374 10.5854L40.2348 9.95062H35.9188L33.6226 24.2338L32.8569 29.0058H37.173L39.6327 13.6799C39.7302 13.1259 40.0232 12.8329 40.5118 12.8329C41.0171 12.8329 41.212 13.1259 41.1146 13.712L40.4464 17.8498ZM118.575 2.93051C118.688 2.81704 118.754 2.65416 118.754 2.44257C118.754 2.18157 118.673 2.00268 118.525 1.88854C118.379 1.7744 118.151 1.70898 117.842 1.70898H116.865V4.2822H117.256V3.15813H117.712L117.728 3.19084L118.38 4.2822H118.819L118.086 3.14211C118.297 3.12676 118.444 3.04465 118.575 2.93051ZM117.255 2.83372V2.03539H117.792C117.955 2.03539 118.085 2.06743 118.167 2.11683C118.282 2.16622 118.347 2.2797 118.347 2.40986C118.347 2.58942 118.282 2.71891 118.152 2.76831C118.071 2.81703 117.923 2.83372 117.728 2.83372H117.255Z" fill="white"/>
<path fill-rule="evenodd" clip-rule="evenodd" d="M119.308 1.39987C118.868 0.976672 118.347 0.764404 117.728 0.764404C117.108 0.764404 116.572 0.976672 116.132 1.39987C115.693 1.82306 115.464 2.3604 115.464 2.97917C115.464 3.63132 115.693 4.15197 116.132 4.59186C116.571 4.99903 117.092 5.21063 117.728 5.21063C118.347 5.21063 118.884 4.99903 119.324 4.57517C119.764 4.15197 119.976 3.63065 119.976 2.97917C119.975 2.36107 119.748 1.83975 119.308 1.39987ZM119.015 4.31551C118.673 4.67396 118.232 4.85285 117.728 4.85285C117.206 4.85285 116.783 4.67396 116.441 4.31551C116.082 3.95706 115.919 3.51785 115.919 2.97984C115.919 2.45919 116.082 2.01931 116.441 1.67688C116.783 1.3191 117.206 1.13954 117.728 1.13954C118.232 1.13954 118.656 1.3191 119.015 1.67688C119.356 2.036 119.536 2.45919 119.536 2.97984C119.536 3.51718 119.356 3.95706 119.015 4.31551ZM25.0559 5.47162H21.131L17.7928 16.3352L18.2327 5.47162H12.8413L9.46977 16.3352L9.99109 5.47162H5.70773L4.63306 29.0064H9.50248L13.1998 16.0261L12.8246 29.0064H18.493L23.6555 10.4719L25.0559 5.47162ZM34.3402 13.6799C34.5197 12.5238 34.2748 11.644 33.6233 11.0252C33.5223 10.9243 33.4134 10.8316 33.2975 10.7482C32.3857 10.1294 31.2784 9.81972 29.9427 9.81972C29.3566 9.81972 28.8193 9.85243 28.314 9.93386C25.9036 10.3244 24.5192 11.628 24.1608 13.8427L23.6555 17.002L22.3365 25.243C22.0762 26.855 22.5154 27.9958 23.6555 28.6306C24.4051 29.0544 25.4638 29.266 26.8315 29.266C27.3688 29.266 27.8574 29.2333 28.3133 29.1686C30.7237 28.8261 32.1087 27.5719 32.4505 25.4226L33.6233 18.1101L34.3402 13.6799ZM30.0074 13.7126L28.3133 24.2337L28.1344 25.3738C28.0363 26.026 27.7273 26.351 27.2386 26.351C26.734 26.351 26.5384 26.026 26.6359 25.3738L28.3133 14.8527L28.5089 13.7126C28.6063 13.0771 28.9001 12.7674 29.4047 12.7674C29.91 12.7681 30.1056 13.0778 30.0074 13.7126ZM51.9295 5.47162H47.6134L44.7472 23.3059L43.8347 29.0064H48.1675L50.7407 12.8982L51.9295 5.47162ZM93.3146 13.8434C93.4934 12.7193 93.3473 11.8236 92.8907 11.1721C92.2559 10.2763 91.0017 9.82039 89.128 9.82039C88.2495 9.82039 87.4499 9.90182 86.767 10.0814C84.7959 10.57 83.6718 11.7755 83.3628 13.6805L82.744 17.4913H86.9132C86.9626 17.2143 87.0107 16.8078 87.0434 16.2698C87.1088 15.7324 87.1582 15.3253 87.2063 15.0483C87.4499 13.5337 87.841 12.7674 88.4124 12.7674C88.9171 12.7674 89.1126 13.0771 89.0145 13.7126L88.5579 16.5301C88.5086 16.8559 87.9385 17.2951 86.8478 17.8498C86.8151 17.8658 86.7997 17.8658 86.767 17.8825C84.9261 18.811 83.6718 19.5926 83.0043 20.2274C82.728 20.4891 82.483 20.7814 82.3041 21.0911C82.0476 21.5097 81.8761 21.9747 81.7995 22.4595L81.1801 26.2863C80.9691 27.6059 81.3429 28.4851 82.3041 28.9249C82.7927 29.1532 83.4436 29.2674 84.2412 29.2674C85.3973 29.2674 86.245 29.0718 86.7664 28.6973C86.9292 28.5678 87.0754 28.4363 87.1729 28.2741L87.0594 29.007H90.8702L92.8894 16.482L93.3146 13.8434ZM87.1255 25.4392C87.0761 25.781 86.9626 26.026 86.767 26.1722C86.6249 26.2738 86.4531 26.3257 86.2784 26.3197C85.7571 26.3197 85.5455 26.0266 85.6436 25.4399L86.1963 21.9869C86.2617 21.6118 86.4413 21.3034 86.767 21.0424C87.0434 20.8308 87.4345 20.6673 87.9231 20.5371L87.1255 25.4392ZM102.044 19.2996C99.8447 18.0293 98.6726 17.1162 98.5097 16.5955C98.3635 16.0749 98.3635 15.2926 98.5424 14.2666C98.6886 13.2734 99.0471 12.7681 99.5851 12.7681C100.122 12.7681 100.253 13.5664 100.008 15.1464L99.5357 17.4426H103.754L103.9 16.5141L104.357 13.6799C104.536 12.5892 104.39 11.7415 103.9 11.1227C103.248 10.2596 101.979 9.81972 100.073 9.81972C96.7188 9.81972 94.8284 11.1554 94.4059 13.8427L93.9981 16.3993C93.8352 17.4252 93.934 18.1742 94.3238 18.6955C94.699 19.2008 95.9211 20.0966 97.973 21.3828C98.493 21.8387 98.6239 22.8807 98.3642 24.4934C98.1673 25.7309 97.8255 26.3497 97.3369 26.3497C96.8496 26.3497 96.6694 26.0246 96.7669 25.3725L97.419 21.3334H93.1023L92.8914 22.7172L92.4521 25.4212C92.2893 26.4639 92.4354 27.2942 92.8914 27.913C93.5435 28.8248 94.8625 29.2647 96.8496 29.2647C100.254 29.2647 102.176 27.9284 102.597 25.2417L103.054 22.3914C103.266 21.1072 102.923 20.0812 102.044 19.2996ZM57.907 10.5206C57.4344 10.0974 56.7181 9.86912 55.7082 9.83708C55.5947 9.82039 55.4639 9.82039 55.3498 9.82039C54.4707 9.82039 53.705 10.0487 53.0048 10.5373C52.3213 11.0099 51.9135 11.6614 51.7833 12.459L50.7407 18.9578L49.5839 26.1561C49.4377 27.1167 49.698 27.8663 50.3822 28.4363C50.4964 28.5178 50.6105 28.6159 50.7407 28.6806C51.3761 29.0718 52.1411 29.2674 53.0696 29.2674C53.9981 29.2674 54.8772 28.9743 55.7082 28.3876C55.7082 28.3716 55.7249 28.3716 55.7249 28.3716L55.9852 29.007H59.2426L63.02 5.47229H58.7046L57.907 10.5206ZM57.4023 13.6151L55.7082 24.2177L55.5133 25.4392C55.4159 26.026 55.1222 26.319 54.6335 26.319C54.1289 26.319 53.9173 26.026 53.9987 25.4392L55.7089 14.8533L55.9045 13.6478C55.9859 13.0618 56.2956 12.7681 56.8003 12.7681C57.2875 12.7681 57.4998 13.0451 57.4023 13.6151ZM111.067 9.82039C107.712 9.82039 105.823 11.1561 105.399 13.8434L104.992 16.3999C104.83 17.4259 104.927 18.1748 105.318 18.6961C105.693 19.2014 106.914 20.0972 108.966 21.3835C109.487 21.8394 109.618 22.8814 109.357 24.4941C109.162 25.7316 108.82 26.3504 108.331 26.3504C107.843 26.3504 107.664 26.0253 107.761 25.3732L108.412 21.3341H104.097L103.901 22.5717L103.445 25.4219C103.282 26.4805 103.428 27.3269 103.901 27.9464C104.569 28.8255 105.888 29.266 107.842 29.266C111.246 29.266 113.168 27.9297 113.591 25.243L114.048 22.3928C114.259 21.1058 113.918 20.0799 113.037 19.2982C110.839 18.028 109.666 17.1148 109.503 16.5942C109.357 16.0735 109.357 15.2912 109.535 14.2653C109.683 13.272 110.041 12.7667 110.578 12.7667C111.115 12.7667 111.246 13.5651 111.002 15.145L110.53 17.4412H114.747L115.349 13.6792C115.773 11.1067 114.341 9.82039 111.067 9.82039ZM83.4769 5.47162H79.1615L76.4728 22.1818L75.3821 29.0064H79.6989L82.3048 12.7848L83.4769 5.47162ZM71.506 19.5592L70.5775 25.3578C70.5121 25.749 70.2684 25.9445 69.8446 25.9445C69.388 25.9445 69.177 25.749 69.2425 25.3578L71.8644 9.03875C71.9298 8.64759 72.1902 8.45268 72.6467 8.45268C73.0693 8.45268 73.2648 8.64759 73.1994 9.03875L72.4511 13.6972H76.7986L77.4828 9.4299C77.7438 7.86661 77.4007 6.74254 76.4722 6.05902C75.7566 5.52101 74.6652 5.26069 73.2154 5.26069C69.5348 5.26069 67.4489 6.77525 66.9616 9.83708L64.5339 24.9833C64.0787 27.8175 65.69 29.218 69.372 29.218C70.6415 29.218 71.8477 28.8929 72.9544 28.208C74.0785 27.5405 74.73 26.6448 74.9089 25.5213L75.8694 19.5599H71.506V19.5592Z" fill="white"/>
</g>
<defs>
<clipPath id="clip0_909_25743">
<rect width="119.967" height="32.9897" fill="white" transform="translate(0.032959 0.750488)"/>
</clipPath>
</defs>
</svg>
