<svg width="149" height="44" viewBox="0 0 149 44" fill="none" xmlns="http://www.w3.org/2000/svg">
<g clip-path="url(#clip0_801_11180)">
<path d="M126.158 26.57V15.6389H117.529V26.57C117.529 30.4106 119.612 33.9558 122.885 35.8761L132.554 41.4893V31.5923L127.199 28.4902C126.603 28.0471 126.158 27.4562 126.158 26.57Z" fill="#D2D4D8"/>
<path d="M132.703 37.2047L142.372 31.5915C145.645 29.6711 147.728 26.1259 147.728 22.2854V0.71875H132.703V9.28633H139.1V22.2854C139.1 23.0239 138.654 23.7625 138.059 24.2057L132.703 27.3077V37.2047Z" fill="white" fill-opacity="0.7"/>
<path d="M132.703 0.71875L117.529 15.7858H132.703V0.71875Z" fill="white"/>
<path d="M97.7441 26.4222V15.6389H101.315V20.6613C101.315 20.9568 101.166 21.3998 101.166 21.3998H101.315L105.331 15.6389H108.753V26.4222H105.183V21.3998C105.183 21.1045 105.331 20.6613 105.331 20.6613H105.183L101.166 26.4222H97.7441Z" fill="white"/>
<path d="M90.1575 23.4676C91.4967 23.4676 92.3891 22.4336 92.3891 21.1042C92.3891 19.7747 91.4967 18.7407 90.1575 18.7407C88.8184 18.7407 87.926 19.7747 87.926 21.1042C87.926 22.4336 88.8184 23.4676 90.1575 23.4676ZM90.1575 15.491C93.5788 15.491 96.1076 17.8544 96.1076 21.1042C96.1076 24.3539 93.5788 26.7174 90.1575 26.7174C86.7363 26.7174 84.2075 24.3539 84.2075 21.1042C84.2075 17.8544 86.7363 15.491 90.1575 15.491Z" fill="white"/>
<path d="M18.3065 37.6477C20.5379 37.6477 22.0255 36.0228 22.0255 33.9548C22.0255 31.8868 20.5379 30.2618 18.3065 30.2618C16.2238 30.2618 14.7363 31.8868 14.7363 33.9548C14.7363 36.1705 16.2238 37.6477 18.3065 37.6477ZM18.3065 28.3416C21.728 28.3416 24.1081 30.705 24.1081 33.9548C24.1081 37.2045 21.728 39.568 18.3065 39.568C14.8851 39.568 12.5049 37.2045 12.5049 33.9548C12.5049 30.705 15.0337 28.3416 18.3065 28.3416Z" fill="white"/>
<path d="M67.1 30.1141C69.0338 30.1141 70.0752 31.4436 70.2239 33.0685H63.976C64.2736 31.2958 65.4636 30.1141 67.1 30.1141ZM72.1578 34.6933C72.1578 34.5456 72.1578 34.2502 72.1578 33.9548C72.1578 30.705 70.5215 28.3416 66.9512 28.3416C63.976 28.3416 61.7446 30.705 61.7446 33.9548C61.7446 34.2502 61.7446 34.3979 61.7446 34.6933C62.0422 37.5 63.8273 39.7157 67.5463 39.7157C69.3314 39.7157 70.9677 39.1248 72.009 38.2385L71.1165 36.7613C70.2239 37.3522 69.0338 37.9431 67.5463 37.9431C65.1661 37.9431 63.976 36.6137 63.8273 34.841H72.1578V34.6933Z" fill="white"/>
<path d="M30.5053 33.6598C30.5053 33.5121 30.6541 33.5121 30.9515 33.3644C31.1003 33.2166 35.1168 28.6375 35.1168 28.6375H32.7367L29.0177 33.0689H28.1251V28.6375H26.0425V39.4208H28.1251V34.6938H29.1664L33.3317 39.4208H36.0094C36.0094 39.4208 31.3978 34.2507 31.2491 34.1029C30.6541 33.8076 30.5053 33.6598 30.5053 33.6598Z" fill="white"/>
<path d="M100.274 37.7959C99.6789 37.7959 98.935 37.7959 98.935 37.7959V33.9552C98.935 33.9552 99.3817 33.8076 100.274 33.8076C102.059 33.8076 102.803 34.5461 102.803 35.7278C102.803 36.9096 102.059 37.7959 100.274 37.7959ZM100.571 31.8872C99.5303 31.8872 98.935 32.0349 98.935 32.0349V28.6375H96.8521V39.4208C96.8521 39.4208 98.6378 39.5685 100.423 39.5685C103.844 39.5685 104.885 37.5004 104.885 35.5801C104.885 33.6598 103.844 31.8872 100.571 31.8872Z" fill="white"/>
<path d="M6.10848 37.6477C3.87709 37.6477 2.83576 36.0228 2.83576 33.9548C2.83576 31.8867 4.17461 30.2618 6.25725 30.2618C7.44732 30.2618 9.0837 31.2958 9.0837 33.3639V36.3182C8.48864 37.2045 7.44732 37.6477 6.10848 37.6477ZM9.23247 28.6369V29.9664H8.93493C8.19112 28.9324 6.85228 28.3416 5.81096 28.3416C2.68701 28.3416 0.753128 30.705 0.753128 33.9548C0.604367 37.2045 2.53825 39.568 5.6622 39.568C7.1498 39.568 8.04236 39.1248 8.93493 38.0908H9.0837V39.1248C9.0837 41.1929 7.59608 42.0792 5.95972 42.0792C4.47212 42.0792 3.28204 41.4882 2.53825 41.0451L1.79445 42.8177C2.53825 43.1132 3.72833 43.9994 5.95972 43.9994C8.93493 43.9994 11.1663 42.2269 11.1663 38.8294V28.7847H9.23247V28.6369Z" fill="white"/>
<path d="M44.1906 28.6375V36.4664C43.5956 37.205 42.5542 37.7959 41.3642 37.7959C39.4303 37.7959 38.5377 36.171 38.5377 34.1029V28.6375H36.4551V34.1029C36.4551 37.3528 37.6452 39.7162 40.7691 39.7162C42.2567 39.7162 43.1493 39.273 44.0418 38.239H44.1906V39.1253C44.1906 41.1933 42.703 42.0797 41.0667 42.0797C39.579 42.0797 38.3889 41.4888 37.6452 41.0456L36.9014 42.8182C37.6452 43.1137 38.8352 44 41.0667 44C44.0418 44 46.2732 42.2273 46.2732 38.8299V28.7852H44.1906V28.6375Z" fill="white"/>
<path d="M58.3233 28.6375C58.3233 28.6375 54.7531 33.6598 54.6043 33.8076C54.4556 33.9552 54.4556 34.1029 54.4556 34.1029H54.3068C54.3068 34.1029 54.3068 33.9552 54.158 33.8076C54.0093 33.6598 50.2903 28.6375 50.2903 28.6375H48.3564V39.4208H50.4391V32.6258C50.4391 32.1826 50.2903 31.8872 50.2903 31.8872H50.4391L54.4556 37.205H54.6043L58.3233 31.8872H58.4721C58.4721 31.8872 58.3233 32.1826 58.3233 32.6258V39.4208H60.4059V28.6375H58.3233Z" fill="white"/>
<path d="M80.0422 15.7863C80.0422 15.7863 77.067 19.627 76.9182 19.7747C76.7695 19.9224 76.7695 20.0702 76.7695 20.0702H76.6208C76.6208 20.0702 76.6208 19.9224 76.472 19.7747C76.3232 19.4793 73.0505 15.7863 73.0505 15.7863H70.2241V26.5697H73.6455V22.1382C73.6455 21.695 73.4968 21.3996 73.4968 21.3996H73.6455L76.6208 24.3539H76.7695L79.2984 21.1042H79.4472C79.4472 21.1042 79.2984 21.3996 79.2984 21.8427V26.2742H82.7202V15.491H80.0422V15.7863Z" fill="white"/>
<path d="M81.5293 28.6375V33.0689H75.7277V28.6375H73.645V39.4208H75.7277V34.6938H81.5293V39.4208H83.7608V28.6375H81.5293Z" fill="white"/>
<path d="M95.0669 28.6375H85.249V30.5577H88.9683V39.4208H91.199V30.5577H95.0669V28.6375Z" fill="white"/>
<path d="M108.603 28.6375H106.521V39.4208H108.603V28.6375Z" fill="white"/>
</g>
<defs>
<clipPath id="clip0_801_11180">
<rect width="148" height="44" fill="white" transform="translate(0.333496)"/>
</clipPath>
</defs>
</svg>
