<svg width="132" height="44" viewBox="0 0 132 44" fill="none" xmlns="http://www.w3.org/2000/svg">
<g clip-path="url(#clip0_801_11198)">
<path d="M51.7458 17.647C52.0471 18.066 52.2193 18.5269 52.2193 19.0716C52.2193 19.7001 52.0041 20.2028 51.5737 20.6637C51.1434 21.1246 50.5839 21.4598 49.8522 21.7112C49.1206 21.9626 48.3459 22.0883 47.4421 22.0883C46.7535 22.0883 46.0649 22.0045 45.3333 21.8368C44.6016 21.6693 43.9561 21.4179 43.3105 21.1246L44.1713 19.1554C44.6447 19.3649 45.1181 19.5744 45.6346 19.6582C46.151 19.7838 46.6675 19.8257 47.1408 19.8257C47.7864 19.8257 48.3029 19.742 48.6902 19.5324C49.0775 19.323 49.2928 19.0297 49.2928 18.6945C49.2928 18.4012 49.1636 18.1917 48.9054 18.0241C48.6471 17.8984 48.3029 17.8146 47.8725 17.8146H45.2902V15.8035H47.6573C48.0447 15.8035 48.3459 15.7197 48.5611 15.594C48.7763 15.4265 48.8624 15.2588 48.8624 15.0075C48.8624 14.6723 48.6902 14.4209 48.3889 14.2533C48.0447 14.0857 47.6143 14.0019 47.0978 14.0019C46.6675 14.0019 46.2371 14.0438 45.7637 14.1695C45.2902 14.2952 44.8599 14.4627 44.4295 14.6723L43.5688 12.5354C44.6447 12.0327 45.8497 11.7812 47.1408 11.7812C47.9585 11.7812 48.7333 11.907 49.4649 12.1164C50.1965 12.3679 50.756 12.6612 51.1434 13.122C51.5737 13.541 51.7889 14.0857 51.7889 14.6723C51.7889 15.1331 51.6598 15.5521 51.4016 15.9292C51.1434 16.3063 50.799 16.5577 50.3687 16.7672C50.9712 16.9348 51.4016 17.228 51.7458 17.647Z" fill="white"/>
<path d="M64.6994 19.6578V23.8895H62.0742V21.8784H55.5755V23.8895H52.9502V19.6578H53.2945C53.897 19.6578 54.3274 19.2388 54.5856 18.4427C54.8438 17.6467 54.9729 16.5154 55.0591 15.0071L55.1882 11.9485H63.3652V19.6159H64.6994V19.6578ZM57.254 17.9399C57.1249 18.6941 56.9097 19.2388 56.6084 19.6159H60.4387V14.1691H57.5552L57.5122 15.2584C57.4691 16.3059 57.3831 17.2277 57.254 17.9399Z" fill="white"/>
<path d="M68.144 21.4179C67.2833 20.957 66.5947 20.3704 66.1212 19.5744C65.6479 18.7783 65.3896 17.8984 65.3896 16.9348C65.3896 15.9711 65.6479 15.0913 66.1212 14.2952C66.5947 13.4991 67.2833 12.9125 68.144 12.4516C69.0047 11.9908 69.9516 11.7812 71.0274 11.7812C72.1032 11.7812 73.0501 11.9908 73.9113 12.4516C74.7718 12.9125 75.4602 13.4991 75.9339 14.2952C76.4071 15.0913 76.6655 15.9711 76.6655 16.9348C76.6655 17.8984 76.4071 18.7783 75.9339 19.5744C75.4602 20.3704 74.7718 20.957 73.9113 21.4179C73.0501 21.8788 72.1032 22.0883 71.0274 22.0883C69.9948 22.0883 69.0047 21.8368 68.144 21.4179ZM72.4481 19.4068C72.878 19.1554 73.1797 18.8202 73.4375 18.4012C73.696 17.9822 73.7817 17.4794 73.7817 16.9348C73.7817 16.3901 73.6528 15.8873 73.4375 15.4683C73.1797 15.0494 72.878 14.7142 72.4481 14.4627C72.0175 14.2114 71.5869 14.1276 71.0706 14.1276C70.5543 14.1276 70.0805 14.2533 69.6931 14.4627C69.2632 14.7142 68.9615 15.0494 68.7035 15.4683C68.4453 15.8873 68.3592 16.3901 68.3592 16.9348C68.3592 17.4794 68.4883 17.9822 68.7035 18.4012C68.9615 18.8202 69.2632 19.1554 69.6931 19.4068C70.1237 19.6582 70.5543 19.742 71.0706 19.742C71.5869 19.742 72.0175 19.6163 72.4481 19.4068Z" fill="white"/>
<path d="M85.272 12.4097C85.9604 12.703 86.4774 13.122 86.8216 13.6667C87.209 14.2114 87.3811 14.8817 87.3811 15.594C87.3811 16.3481 87.209 16.9766 86.8216 17.5213C86.4342 18.066 85.9179 18.485 85.272 18.7783C84.5836 19.0715 83.8088 19.2392 82.8619 19.2392H81.0977V21.8369H78.2139V11.9907H82.8619C83.8088 11.9907 84.6268 12.1164 85.272 12.4097ZM84.0673 16.6833C84.3683 16.432 84.4972 16.0968 84.4972 15.6359C84.4972 15.175 84.3683 14.7979 84.0673 14.5466C83.7656 14.2951 83.3357 14.1695 82.733 14.1695H81.1402V17.0604H82.733C83.2925 17.0604 83.7656 16.9348 84.0673 16.6833Z" fill="white"/>
<path d="M90.9525 21.4179C90.092 20.957 89.4036 20.3704 88.9298 19.5744C88.4567 18.7783 88.1982 17.8984 88.1982 16.9348C88.1982 15.9711 88.4567 15.0913 88.9298 14.2952C89.4036 13.4991 90.092 12.9125 90.9525 12.4516C91.8137 11.9908 92.7606 11.7812 93.8364 11.7812C94.9122 11.7812 95.8591 11.9908 96.7196 12.4516C97.5808 12.9125 98.2692 13.4991 98.7423 14.2952C99.2161 15.0913 99.4739 15.9711 99.4739 16.9348C99.4739 17.8984 99.2161 18.7783 98.7423 19.5744C98.2692 20.3704 97.5808 20.957 96.7196 21.4179C95.8591 21.8788 94.9122 22.0883 93.8364 22.0883C92.7606 22.0883 91.8137 21.8368 90.9525 21.4179ZM95.2132 19.4068C95.6438 19.1554 95.9448 18.8202 96.2033 18.4012C96.4618 17.9822 96.5475 17.4794 96.5475 16.9348C96.5475 16.3901 96.4186 15.8873 96.2033 15.4683C95.9448 15.0494 95.6438 14.7142 95.2132 14.4627C94.7833 14.2114 94.3527 14.1276 93.8364 14.1276C93.3201 14.1276 92.8463 14.2533 92.4589 14.4627C92.029 14.7142 91.7273 15.0494 91.4695 15.4683C91.211 15.8873 91.1246 16.3901 91.1246 16.9348C91.1246 17.4794 91.2542 17.9822 91.4695 18.4012C91.7273 18.8202 92.029 19.1554 92.4589 19.4068C92.8895 19.6582 93.3201 19.742 93.8364 19.742C94.3527 19.742 94.8258 19.6163 95.2132 19.4068Z" fill="white"/>
<path d="M109.802 17.5632C110.103 17.9403 110.275 18.4431 110.275 19.0296C110.275 19.9095 109.931 20.5799 109.242 21.0827C108.554 21.5855 107.564 21.8369 106.273 21.8369H101.022V11.9907H105.972C107.177 11.9907 108.124 12.2003 108.812 12.6611C109.501 13.122 109.802 13.7505 109.802 14.5466C109.802 15.0074 109.673 15.4683 109.457 15.8035C109.2 16.1806 108.898 16.4739 108.425 16.6833C109.027 16.8929 109.501 17.1861 109.802 17.5632ZM103.862 15.9292H105.671C106.488 15.9292 106.875 15.594 106.875 14.9655C106.875 14.2951 106.488 14.0018 105.671 14.0018H103.862V15.9292ZM107.349 18.8202C107.349 18.1498 106.918 17.8146 106.1 17.8146H103.82V19.8676H106.1C106.962 19.8676 107.349 19.5325 107.349 18.8202Z" fill="white"/>
<path d="M118.841 19.9514H114.537L113.72 21.8788H110.793L115.269 11.9907H118.11L122.629 21.8788H119.659L118.841 19.9514ZM117.981 17.8984L116.69 14.7141L115.398 17.8984H117.981Z" fill="white"/>
<path d="M131.751 11.9907V21.8788H128.91V19.4067H127.361L125.683 21.8788H122.67L124.736 18.9877C124.047 18.6945 123.53 18.2755 123.186 17.7308C122.842 17.1861 122.67 16.5158 122.67 15.7616C122.67 15.0074 122.842 14.337 123.229 13.7505C123.617 13.1639 124.133 12.7449 124.822 12.4516C125.511 12.1583 126.328 11.9907 127.232 11.9907H131.751ZM125.511 15.6778C125.511 16.1806 125.64 16.5577 125.941 16.8091C126.242 17.0604 126.63 17.1861 127.189 17.1861H128.91V14.1276H127.232C126.07 14.1695 125.511 14.6722 125.511 15.6778Z" fill="white"/>
<path d="M53.2949 35.6206V30.3834L50.6696 34.657H49.3785L46.7532 30.509V35.6206H44.1279V25.7327H46.495L50.067 31.4308L53.5531 25.7327H55.9201L55.9632 35.6206H53.2949Z" fill="white" fill-opacity="0.7"/>
<path d="M60.2231 35.1599C59.3624 34.699 58.6738 34.1124 58.2003 33.3163C57.727 32.5203 57.4688 31.6404 57.4688 30.6767C57.4688 29.7131 57.727 28.8332 58.2003 28.0371C58.6738 27.241 59.3624 26.6545 60.2231 26.1936C61.0839 25.7327 62.0307 25.5232 63.1066 25.5232C64.1826 25.5232 65.1294 25.7327 65.9902 26.1936C66.8509 26.6545 67.5395 27.241 68.0129 28.0371C68.4863 28.8332 68.7445 29.7131 68.7445 30.6767C68.7445 31.6404 68.4863 32.5203 68.0129 33.3163C67.5395 34.1124 66.8509 34.699 65.9902 35.1599C65.1294 35.6207 64.1826 35.8302 63.1066 35.8302C62.0307 35.8302 61.0408 35.5788 60.2231 35.1599ZM64.4838 33.1487C64.9142 32.8973 65.2154 32.5621 65.4737 32.1432C65.7319 31.7242 65.818 31.2214 65.818 30.6767C65.818 30.1321 65.6889 29.6292 65.4737 29.2102C65.2154 28.7913 64.9142 28.4561 64.4838 28.2047C64.0535 27.9533 63.6231 27.8696 63.1066 27.8696C62.5902 27.8696 62.1167 27.9952 61.7294 28.2047C61.299 28.4561 60.9978 28.7913 60.7396 29.2102C60.4814 29.6292 60.3953 30.1321 60.3953 30.6767C60.3953 31.2214 60.5244 31.7242 60.7396 32.1432C60.9978 32.5621 61.299 32.8973 61.7294 33.1487C62.1598 33.4001 62.5902 33.4839 63.1066 33.4839C63.6231 33.4839 64.0965 33.4001 64.4838 33.1487Z" fill="white" fill-opacity="0.7"/>
<path d="M72.3605 35.1599C71.5 34.7409 70.8541 34.1124 70.381 33.3163C69.9079 32.5203 69.6494 31.6404 69.6494 30.6767C69.6494 29.6712 69.9079 28.7913 70.381 28.0371C70.8541 27.241 71.5432 26.6545 72.3605 26.1936C73.2217 25.7746 74.1686 25.5232 75.2444 25.5232C76.1913 25.5232 77.0086 25.6908 77.7402 25.9841C78.4718 26.3193 79.1176 26.7802 79.5908 27.3668L77.7402 28.9589C77.095 28.2048 76.277 27.7858 75.3301 27.7858C74.7706 27.7858 74.2975 27.9114 73.8669 28.1209C73.437 28.3723 73.0921 28.7075 72.8775 29.1265C72.619 29.5455 72.5326 30.0482 72.5326 30.5929C72.5326 31.1376 72.6622 31.6404 72.8775 32.0594C73.1353 32.4784 73.437 32.8136 73.8669 33.0649C74.2975 33.3163 74.7706 33.4001 75.3301 33.4001C76.277 33.4001 77.0518 33.023 77.7402 32.2269L79.5908 33.8191C79.1176 34.4057 78.4718 34.8666 77.7402 35.2018C77.0086 35.537 76.1481 35.6626 75.2444 35.6626C74.1686 35.8302 73.2217 35.6207 72.3605 35.1599Z" fill="white" fill-opacity="0.7"/>
<path d="M85.0138 31.8498H83.7227V35.6206H80.8389V25.7327H83.7227V29.5873H85.0995L87.5096 25.7327H90.5224L87.3375 30.509L90.5656 35.6206H87.3375L85.0138 31.8498Z" fill="white" fill-opacity="0.7"/>
<path d="M100.249 31.347C100.55 31.7241 100.723 32.2269 100.723 32.8135C100.723 33.6933 100.378 34.3637 99.6898 34.8664C99.0014 35.3693 98.0113 35.6206 96.7203 35.6206H91.5127V25.7327H96.4618C97.6672 25.7327 98.614 25.9421 99.3024 26.403C99.9908 26.8639 100.293 27.4923 100.293 28.2884C100.293 28.7493 100.164 29.2102 99.9483 29.5454C99.6898 29.9225 99.3888 30.2157 98.915 30.4253C99.4745 30.6347 99.9483 30.928 100.249 31.347ZM94.3102 29.6711H96.1176C96.9356 29.6711 97.3229 29.3359 97.3229 28.7074C97.3229 28.0371 96.9356 27.7438 96.1176 27.7438H94.3102V29.6711ZM97.8393 32.604C97.8393 31.9336 97.4087 31.5984 96.5914 31.5984H94.3102V33.6514H96.5914C97.4087 33.6095 97.8393 33.2743 97.8393 32.604Z" fill="white" fill-opacity="0.7"/>
<path d="M109.288 33.6933H104.984L104.166 35.6206H101.239L105.715 25.7327H108.556L113.074 35.6206H110.105L109.288 33.6933ZM108.47 31.6403L107.178 28.4561L105.887 31.6403H108.47Z" fill="white" fill-opacity="0.7"/>
<path d="M44.2129 37.967H44.8584V40.4391L46.7951 37.967H47.4407V41.4446H46.7521V38.9726L44.8584 41.4446H44.2129V37.967Z" fill="white"/>
<path d="M48.8204 41.3184C48.6053 41.1927 48.4331 41.0251 48.304 40.8156C48.1749 40.6061 48.1318 40.3547 48.1318 40.1034C48.1318 39.8519 48.1749 39.6005 48.304 39.3911C48.4331 39.1815 48.6053 39.014 48.8204 38.8883C49.0356 38.7626 49.2939 38.7207 49.5951 38.7207C49.8533 38.7207 50.1116 38.7626 50.2837 38.8883C50.4559 39.014 50.628 39.1397 50.7572 39.3492L50.2837 39.6424C50.1977 39.5167 50.1115 39.433 49.9824 39.3492C49.8533 39.3073 49.7242 39.2654 49.5951 39.2654C49.3369 39.2654 49.1648 39.3492 48.9926 39.4749C48.8204 39.6424 48.7774 39.8101 48.7774 40.0614C48.7774 40.3128 48.8635 40.5223 48.9926 40.648C49.1648 40.8156 49.3369 40.8575 49.5951 40.8575C49.7242 40.8575 49.8533 40.8156 49.9824 40.7737C50.1115 40.7318 50.1977 40.6061 50.2837 40.4804L50.7572 40.7737C50.671 40.9832 50.4989 41.1089 50.2837 41.2346C50.0686 41.3603 49.8533 41.4022 49.5951 41.4022C49.2939 41.486 49.0787 41.4441 48.8204 41.3184Z" fill="white"/>
<path d="M53.9407 38.8054V41.445H53.2951V39.3082H51.961V41.445H51.3154V38.8054H53.9407Z" fill="white"/>
<path d="M55.2755 41.3184C55.0603 41.1927 54.8882 41.0251 54.7591 40.8156C54.63 40.6061 54.5869 40.3547 54.5869 40.1034C54.5869 39.8519 54.63 39.6005 54.7591 39.3911C54.8882 39.1815 55.0603 39.014 55.2755 38.8883C55.4907 38.7626 55.7489 38.7207 56.0071 38.7207C56.2653 38.7207 56.5236 38.7626 56.7388 38.8883C56.9539 39.014 57.1261 39.1815 57.2552 39.3911C57.3843 39.6005 57.4274 39.8519 57.4274 40.1034C57.4274 40.3547 57.3843 40.6061 57.2552 40.8156C57.1261 41.0251 56.9539 41.1927 56.7388 41.3184C56.5236 41.4441 56.2653 41.486 56.0071 41.486C55.7489 41.486 55.4907 41.4441 55.2755 41.3184ZM56.6097 40.7318C56.7818 40.5642 56.8248 40.3966 56.8248 40.1453C56.8248 39.8938 56.7388 39.6844 56.6097 39.5586C56.4375 39.3911 56.2653 39.3492 56.0071 39.3492C55.792 39.3492 55.5768 39.433 55.4046 39.5586C55.2325 39.7263 55.1894 39.8938 55.1894 40.1453C55.1894 40.3966 55.2755 40.6061 55.4046 40.7318C55.5768 40.8994 55.7489 40.9413 56.0071 40.9413C56.2653 40.9413 56.4806 40.8994 56.6097 40.7318Z" fill="white"/>
<path d="M60.5691 38.8052V41.4867H59.9235V39.3498H58.8906L58.8476 39.8946C58.8476 40.2297 58.8045 40.523 58.7615 40.7744C58.7185 41.0258 58.6324 41.1934 58.5033 41.319C58.3741 41.4448 58.245 41.5286 58.0299 41.5286C57.9438 41.5286 57.8147 41.5286 57.6855 41.4867L57.7286 40.9839C57.7717 40.9839 57.8147 40.9839 57.8577 40.9839C57.9868 40.9839 58.0729 40.9419 58.159 40.8163C58.202 40.7325 58.245 40.6068 58.2881 40.4392C58.2881 40.3135 58.3311 40.104 58.3311 39.8526L58.3742 38.8052H60.5691Z" fill="white"/>
<path d="M63.5826 39.8944C63.7548 40.062 63.8408 40.2715 63.8408 40.5229C63.8408 40.8161 63.7548 41.0257 63.5396 41.1932C63.3244 41.3609 63.0662 41.4446 62.6789 41.4446H61.3877V38.7632H62.0333V39.643H62.7649C63.1522 39.6849 63.4105 39.7687 63.5826 39.8944ZM63.0662 40.9C63.1522 40.8161 63.1953 40.6905 63.1953 40.5648C63.1953 40.3972 63.1522 40.3134 63.0662 40.2296C62.9801 40.1458 62.808 40.1039 62.6358 40.1039H62.0333V41.0257H62.6358C62.851 41.0257 62.9801 40.9838 63.0662 40.9Z" fill="white"/>
<path d="M66.4227 40.3134C66.5087 40.3972 66.5518 40.5229 66.5518 40.6905C66.5518 40.858 66.5087 40.9838 66.3796 41.1094C66.2505 41.2351 66.1214 41.319 65.9062 41.4028C65.691 41.4865 65.4759 41.4865 65.2176 41.4865C65.0024 41.4865 64.7873 41.4447 64.6151 41.4028C64.3999 41.3609 64.2278 41.277 64.0557 41.1932L64.2278 40.7324C64.3569 40.8161 64.529 40.858 64.6581 40.9C64.8303 40.9419 65.0024 40.9419 65.1746 40.9419C65.3898 40.9419 65.5619 40.9 65.691 40.858C65.8201 40.7743 65.8632 40.6905 65.8632 40.6067C65.8632 40.5229 65.8201 40.4391 65.7341 40.3553C65.648 40.3134 65.5189 40.2715 65.3468 40.2715H64.8303V39.8525H65.3037C65.4759 39.8525 65.605 39.8106 65.691 39.7687C65.7771 39.7268 65.8201 39.643 65.8201 39.5592C65.8201 39.4754 65.7771 39.3917 65.648 39.3497C65.5189 39.3078 65.3898 39.2659 65.2176 39.2659C64.9594 39.2659 64.6582 39.3497 64.3569 39.4754L64.1848 39.0146C64.529 38.8469 64.9164 38.7632 65.2606 38.7632C65.4759 38.7632 65.691 38.805 65.9062 38.8469C66.0783 38.8888 66.2505 39.0146 66.3366 39.0984C66.4227 39.224 66.5087 39.3497 66.5087 39.4754C66.5087 39.6011 66.4657 39.7268 66.3796 39.8106C66.2936 39.8944 66.1645 39.9782 66.0354 40.062C66.2075 40.1039 66.3366 40.1877 66.4227 40.3134Z" fill="white"/>
<path d="M69.82 38.8052L68.5292 41.6961C68.4001 41.9894 68.271 42.199 68.0988 42.3246C67.9267 42.4503 67.7115 42.4922 67.4963 42.4922C67.3672 42.4922 67.2381 42.4503 67.109 42.4084C66.9799 42.3665 66.8507 42.3246 66.7646 42.2409L67.0229 41.7799C67.0659 41.8219 67.152 41.8638 67.2381 41.9057C67.3241 41.9475 67.4102 41.9475 67.4963 41.9475C67.6254 41.9475 67.7115 41.9056 67.7545 41.8638C67.8406 41.8219 67.8836 41.6961 67.9697 41.5705L68.0127 41.4867L66.8077 38.8052H67.4532L68.314 40.7744L69.1748 38.8052H69.82Z" fill="white"/>
<path d="M70.252 38.8048H70.8972V40.5645L72.4035 38.8048H73.0062V41.4863H72.3603V39.7265L70.8546 41.4863H70.252V38.8048ZM70.9403 38.302C70.8114 38.1763 70.7251 38.0088 70.7251 37.7573H71.1556C71.1556 37.883 71.1988 37.9669 71.2845 38.0506C71.3709 38.1344 71.4566 38.1344 71.5862 38.1344C71.7151 38.1344 71.8009 38.0925 71.8872 38.0506C71.9736 37.9669 72.0161 37.883 72.0161 37.7573H72.4467C72.4467 38.0088 72.3603 38.1763 72.2314 38.302C72.1025 38.4277 71.8872 38.4696 71.5862 38.4696C71.2845 38.4696 71.0693 38.4277 70.9403 38.302Z" fill="white"/>
<path d="M77.7397 40.7325C77.7397 40.9839 77.654 41.1515 77.4819 41.2771C77.3098 41.4029 77.0081 41.4867 76.6639 41.4867H75.2871V38.8052H76.6207C76.9656 38.8052 77.2234 38.8471 77.3955 38.9727C77.5676 39.0985 77.6972 39.266 77.6972 39.4755C77.6972 39.6012 77.654 39.7269 77.5676 39.8107C77.4819 39.8946 77.3955 39.9783 77.2666 40.0621C77.5676 40.1878 77.7397 40.3973 77.7397 40.7325ZM75.8466 39.8946H76.535C76.8792 39.8946 77.0513 39.7688 77.0513 39.5594C77.0513 39.3498 76.8792 39.2242 76.535 39.2242H75.8466V39.8946ZM77.1377 40.6906C77.1377 40.5649 77.0945 40.4811 77.0081 40.4392C76.9224 40.3973 76.7928 40.3554 76.6207 40.3554H75.8891V41.0258H76.6207C76.9656 41.0258 77.1377 40.9 77.1377 40.6906Z" fill="white"/>
<path d="M78.9023 41.3184C78.6877 41.1927 78.5156 41.0251 78.386 40.8156C78.2571 40.6061 78.2139 40.3547 78.2139 40.1034C78.2139 39.8519 78.2571 39.6005 78.386 39.3911C78.5156 39.1815 78.6877 39.014 78.9023 38.8883C79.1176 38.7626 79.376 38.7207 79.6345 38.7207C79.8923 38.7207 80.1508 38.7626 80.3661 38.8883C80.5807 39.014 80.7528 39.1815 80.8824 39.3911C81.0113 39.6005 81.0545 39.8519 81.0545 40.1034C81.0545 40.3547 81.0113 40.6061 80.8824 40.8156C80.7528 41.0251 80.5807 41.1927 80.3661 41.3184C80.1508 41.4441 79.8923 41.486 79.6345 41.486C79.376 41.486 79.1176 41.4441 78.9023 41.3184ZM80.2365 40.7318C80.4086 40.5642 80.4518 40.3966 80.4518 40.1453C80.4518 39.8938 80.3661 39.6844 80.2365 39.5586C80.0644 39.3911 79.8923 39.3492 79.6345 39.3492C79.4192 39.3492 79.204 39.433 79.0319 39.5586C78.8598 39.7263 78.8166 39.8938 78.8166 40.1453C78.8166 40.3966 78.9023 40.6061 79.0319 40.7318C79.204 40.8994 79.376 40.9413 79.6345 40.9413C79.8923 40.9413 80.0644 40.8994 80.2365 40.7318Z" fill="white"/>
<path d="M83.7233 40.3134C83.8097 40.3972 83.8529 40.5229 83.8529 40.6905C83.8529 40.858 83.8097 40.9838 83.6808 41.1094C83.5512 41.2351 83.4223 41.319 83.207 41.4028C82.9917 41.4865 82.7771 41.4865 82.5186 41.4865C82.3033 41.4865 82.088 41.4447 81.9159 41.4028C81.7006 41.3609 81.5285 41.277 81.3564 41.1932L81.5285 40.7324C81.6581 40.8161 81.8302 40.858 81.9591 40.9C82.1312 40.9419 82.3033 40.9419 82.4754 40.9419C82.6907 40.9419 82.8628 40.9 82.9917 40.858C83.1213 40.7743 83.1638 40.6905 83.1638 40.6067C83.1638 40.5229 83.1213 40.4391 83.0349 40.3553C82.9492 40.3134 82.8196 40.2715 82.6475 40.2715H82.1312V39.8525H82.6043C82.7771 39.8525 82.906 39.8106 82.9917 39.7687C83.0781 39.7268 83.1213 39.643 83.1213 39.5592C83.1213 39.4754 83.0781 39.3917 82.9492 39.3497C82.8196 39.3078 82.6907 39.2659 82.5186 39.2659C82.2601 39.2659 81.9591 39.3497 81.6581 39.4754L81.4854 39.0146C81.8302 38.8469 82.2176 38.7632 82.5618 38.7632C82.7771 38.7632 82.9917 38.805 83.207 38.8469C83.3791 38.8888 83.5512 39.0146 83.6376 39.0984C83.7233 39.224 83.8097 39.3497 83.8097 39.4754C83.8097 39.6011 83.7665 39.7268 83.6808 39.8106C83.5944 39.8944 83.4655 39.9782 83.3359 40.062C83.5087 40.1039 83.6376 40.1877 83.7233 40.3134Z" fill="white"/>
<path d="M87.2086 41.4448V39.685L86.3049 41.1934H86.0032L85.0995 39.685V41.4448H84.54V38.8052H85.1859L86.1753 40.4811L87.2086 38.8052H87.7681L87.8113 41.4448H87.2086Z" fill="white"/>
<path d="M89.1025 41.3184C88.8878 41.1927 88.7157 41.0251 88.5862 40.8156C88.4573 40.6061 88.4141 40.3547 88.4141 40.1034C88.4141 39.8519 88.4573 39.6005 88.5862 39.3911C88.7157 39.1815 88.8878 39.014 89.1025 38.8883C89.3178 38.7626 89.5762 38.7207 89.8341 38.7207C90.0925 38.7207 90.351 38.7626 90.5663 38.8883C90.7809 39.014 90.953 39.1815 91.0826 39.3911C91.2115 39.6005 91.2547 39.8519 91.2547 40.1034C91.2547 40.3547 91.2115 40.6061 91.0826 40.8156C90.953 41.0251 90.7809 41.1927 90.5663 41.3184C90.351 41.4441 90.0925 41.486 89.8341 41.486C89.5762 41.486 89.361 41.4441 89.1025 41.3184ZM90.4367 40.7318C90.6088 40.5642 90.652 40.3966 90.652 40.1453C90.652 39.8938 90.5663 39.6844 90.4367 39.5586C90.2646 39.3911 90.0925 39.3492 89.8341 39.3492C89.5762 39.3492 89.4041 39.433 89.232 39.5586C89.0599 39.7263 89.0168 39.8938 89.0168 40.1453C89.0168 40.3966 89.1025 40.6061 89.232 40.7318C89.4041 40.8994 89.5762 40.9413 89.8341 40.9413C90.0925 40.9413 90.3078 40.8994 90.4367 40.7318Z" fill="white"/>
<path d="M94.4808 40.3975H94.0077V41.445H93.3625V40.3975H92.8887L92.2435 41.445H91.4688L92.3724 40.1043L91.5545 38.8054H92.2435L92.8887 39.8948H93.3625V38.8054H94.0077V39.8948H94.4808L95.1267 38.8054H95.8151L94.9978 40.1043L95.9015 41.445H95.1267L94.4808 40.3975Z" fill="white"/>
<path d="M96.376 38.8054H97.0219V39.8948H98.3993V38.8054H99.0446V41.445H98.3993V40.3975H97.0219V41.445H96.376V38.8054Z" fill="white"/>
<path d="M100.336 41.3184C100.12 41.1927 99.9482 41.0251 99.8193 40.8156C99.6897 40.6061 99.6465 40.3547 99.6465 40.1034C99.6465 39.8519 99.6897 39.6005 99.8193 39.3911C99.9482 39.1815 100.12 39.014 100.336 38.8883C100.551 38.7626 100.809 38.7207 101.067 38.7207C101.325 38.7207 101.583 38.7626 101.799 38.8883C102.014 39.014 102.186 39.1815 102.315 39.3911C102.444 39.6005 102.487 39.8519 102.487 40.1034C102.487 40.3547 102.444 40.6061 102.315 40.8156C102.186 41.0251 102.014 41.1927 101.799 41.3184C101.583 41.4441 101.325 41.486 101.067 41.486C100.809 41.486 100.593 41.4441 100.336 41.3184ZM101.67 40.7318C101.842 40.5642 101.884 40.3966 101.884 40.1453C101.884 39.8938 101.799 39.6844 101.67 39.5586C101.497 39.3911 101.325 39.3492 101.067 39.3492C100.852 39.3492 100.637 39.433 100.464 39.5586C100.292 39.7263 100.249 39.8938 100.249 40.1453C100.249 40.3966 100.336 40.6061 100.464 40.7318C100.637 40.8994 100.809 40.9413 101.067 40.9413C101.325 40.9413 101.54 40.8994 101.67 40.7318Z" fill="white"/>
<path d="M103.692 41.3184C103.477 41.1927 103.305 41.0251 103.176 40.8156C103.046 40.6061 103.003 40.3547 103.003 40.1034C103.003 39.8519 103.046 39.6005 103.176 39.3911C103.305 39.1815 103.477 39.014 103.692 38.8883C103.907 38.7626 104.165 38.7207 104.467 38.7207C104.725 38.7207 104.983 38.7626 105.155 38.8883C105.37 39.014 105.499 39.1397 105.628 39.3492L105.155 39.6424C105.069 39.5167 104.983 39.433 104.854 39.3492C104.725 39.3073 104.596 39.2654 104.467 39.2654C104.208 39.2654 104.036 39.3492 103.864 39.4749C103.692 39.6424 103.649 39.8101 103.649 40.0614C103.649 40.3128 103.735 40.5223 103.864 40.648C104.036 40.8156 104.208 40.8575 104.467 40.8575C104.596 40.8575 104.725 40.8156 104.854 40.7737C104.983 40.7318 105.069 40.6061 105.155 40.4804L105.628 40.7737C105.543 40.9832 105.37 41.1089 105.155 41.2346C104.94 41.3603 104.725 41.4022 104.467 41.4022C104.165 41.486 103.907 41.4441 103.692 41.3184Z" fill="white"/>
<path d="M108.297 39.3079H107.35V41.4448H106.705V39.3079H105.758V38.8052H108.297V39.3079Z" fill="white"/>
<path d="M108.771 38.8052H109.416V40.5649L110.922 38.8052H111.525V41.4448H110.879V39.7269L109.373 41.4448H108.771V38.8052Z" fill="white"/>
<path d="M112.343 41.4027C112.256 41.3189 112.214 41.2352 112.214 41.1094C112.214 40.9837 112.256 40.9 112.343 40.8162C112.428 40.7324 112.515 40.6904 112.644 40.6904C112.773 40.6904 112.859 40.7324 112.945 40.8162C113.031 40.9 113.074 40.9837 113.074 41.1094C113.074 41.2352 113.031 41.3189 112.945 41.4027C112.859 41.4865 112.773 41.5284 112.644 41.5284C112.515 41.4865 112.428 41.4446 112.343 41.4027ZM112.256 37.967H113.031L112.902 40.3133H112.386L112.256 37.967Z" fill="white"/>
<path d="M27.2573 8.55474C24.7181 11.6971 19.8548 12.1161 19.8548 12.1161C19.8548 12.1161 19.0801 7.42345 21.5763 4.28108C24.1155 1.13871 28.9787 0.719727 28.9787 0.719727C28.9787 0.719727 29.7534 5.41233 27.2573 8.55474Z" fill="white"/>
<path d="M16.9288 7.9264C15.2504 6.41808 12.5391 6.62758 12.5391 6.62758C12.5391 6.62758 12.5391 9.26715 14.2175 10.7755C15.896 12.2838 18.6073 12.0744 18.6073 12.0744C18.6073 12.0744 18.6073 9.43478 16.9288 7.9264Z" fill="white"/>
<path d="M12.4955 40.8995C12.2372 40.8995 12.0221 40.8576 11.7639 40.7319C6.72848 37.9248 3.15638 34.2796 1.47792 30.1736C-0.0283839 26.5284 -0.0283847 22.7156 1.52096 19.4476C4.14624 13.959 10.3436 11.6127 16.541 13.8332C17.2726 14.0846 17.66 14.9226 17.4018 15.6349C17.1435 16.3471 16.2828 16.7242 15.5512 16.4728C9.95627 14.5036 5.78165 17.1432 4.1032 20.6208C1.73615 25.5648 3.62979 32.9808 13.1841 38.3019C13.8727 38.679 14.1309 39.5588 13.7005 40.2292C13.4853 40.6482 12.9689 40.8995 12.4955 40.8995Z" fill="white"/>
<path d="M18.9514 44.0012C18.3489 44.0012 17.7894 43.6242 17.5742 43.0794C17.316 42.3672 17.7033 41.5292 18.435 41.2779C35.3056 35.4959 37.3714 27.2838 37.5005 24.0157C37.6296 20.2449 35.5208 16.893 32.1208 15.4685C28.2475 13.8763 23.8146 15.1333 20.0273 18.9041C19.4678 19.4488 18.5641 19.4907 18.0046 18.946C17.4451 18.4014 17.402 17.5215 17.9615 16.9768C22.5665 12.368 28.2905 10.8596 33.2398 12.9127C37.7587 14.7981 40.5561 19.1555 40.384 24.0995C40.2549 27.9541 37.9739 37.5489 19.4248 43.9174C19.2957 44.0012 19.1235 44.0012 18.9514 44.0012Z" fill="white" fill-opacity="0.7"/>
<path d="M11.2902 38.8471C10.3864 40.3554 12.7965 41.738 13.7003 40.2297C15.0774 37.9253 16.4547 35.6209 17.8319 33.3165C17.961 33.4003 20.2419 34.4059 21.1457 34.9925C20.1989 35.5371 19.2951 36.0818 18.3483 36.6265C16.799 37.5483 18.2192 39.8946 19.7686 38.9728C21.1888 38.1348 24.5026 36.0818 24.6317 35.8304C25.0621 35.3277 25.1482 34.6154 24.5457 34.0707C23.4697 33.1489 22.3078 32.3528 21.0166 31.7244C21.8774 30.0903 22.7381 28.4982 23.685 26.9061C26.6545 27.7859 29.4949 26.7385 31.5177 23.9732C32.5506 22.5487 30.1406 21.166 29.1076 22.5906C27.5153 24.7693 25.4064 25.0206 23.1255 23.6799C22.9533 23.5961 22.2647 23.219 22.1356 23.1352C18.4774 20.9984 14.8192 21.8364 12.3662 25.2302C11.3332 26.6547 13.7433 28.0373 14.7762 26.6128C16.0243 24.8531 17.6597 24.3503 19.4242 24.895C18.4774 26.4452 13.0547 35.9142 11.2902 38.8471Z" fill="white"/>
<path d="M24.2435 23.1766C25.4916 23.3023 26.6106 22.4224 26.7397 21.2074C26.8688 19.9923 26.008 18.903 24.7599 18.7353C23.5119 18.6097 22.3929 19.4895 22.2638 20.7045C22.1347 21.9196 22.9954 23.0509 24.2435 23.1766Z" fill="white"/>
</g>
<defs>
<clipPath id="clip0_801_11198">
<rect width="132" height="44" fill="white"/>
</clipPath>
</defs>
</svg>
