<svg width="190" height="190" viewBox="0 0 190 190" fill="none" xmlns="http://www.w3.org/2000/svg">
<path d="M178.066 108.143L172.813 107.613L172.345 112.249L187.15 113.744L188.375 101.606C188.874 96.671 186.656 94.9395 184.328 94.7044L184.089 94.6803C181.781 94.4473 179.826 95.6972 179.165 99.6508L174.274 93.1465L173.675 99.0764L178.374 105.099L178.066 108.143ZM181.35 108.475L182.079 101.252C182.214 99.9184 182.905 99.4454 183.721 99.5278L183.74 99.5298C184.516 99.6082 185.121 100.192 184.984 101.545L184.255 108.768L181.35 108.475Z" fill="#FF0A33"/>
<path d="M172.515 127.669C173.768 128.246 174.537 129.922 173.373 132.447L173.331 132.538C172.125 135.153 170.519 135.293 169.266 134.716L169.193 134.682C168.013 134.138 166.985 132.783 168.191 130.168L168.233 130.077C169.372 127.607 171.226 127.074 172.442 127.635L172.515 127.669ZM179.196 125.838L166.01 119.758L164.142 123.808L168.937 126.019C168.423 126.178 166.416 127.235 165.076 130.141L164.942 130.432C162.866 134.936 164.596 137.584 167.157 138.765L167.502 138.924C170.19 140.163 173.084 139.714 175.127 135.282L175.278 134.955C176.643 131.994 176.11 129.855 175.93 129.243L177.328 129.888L179.196 125.838Z" fill="#FF0A33"/>
<path d="M157.999 149.54C156.987 148.756 156.919 146.755 158.378 144.874C159.309 143.673 160.084 143.717 160.543 144.073L160.559 144.085C161.049 144.465 160.912 144.967 160.356 145.978L158.267 149.749L157.999 149.54ZM155.317 147.613C154.413 147.115 153.633 147.37 153.106 148.05L150.888 150.911L153.195 152.7L153.551 152.241C153.833 151.878 154.068 151.934 154.321 152.13L157.577 154.654C158.809 155.61 160.572 156.471 164.395 151.539L165.07 150.67C168.746 145.928 167.249 144.236 166.127 143.366L166.095 143.342L163.558 146.613C163.806 146.881 164.409 147.475 162.779 149.577L162.717 149.656C161.112 151.727 160.622 151.575 160.306 151.33C160.038 151.121 160.021 150.881 160.28 150.449L162.932 146.279C164.668 143.551 164.721 141.947 163.157 140.734L163.046 140.648C161.592 139.521 159.419 139.582 157.2 142.443L157.041 142.648C155.105 145.145 155.141 146.894 155.317 147.613Z" fill="#FF0A33"/>
<path d="M142.717 156.987C137.415 161.372 138.979 164.361 139.935 165.517L139.96 165.548L143.489 162.629C143.299 162.242 142.644 160.759 144.971 158.834L145.017 158.796C147.005 157.152 148.571 157.726 149.488 158.836L149.577 158.944C150.444 159.992 150.641 161.516 148.637 163.173L148.591 163.212C146.233 165.162 144.956 164.245 144.611 163.985L141.082 166.904L141.12 166.95C142.038 168.06 144.762 170.037 149.941 165.754L150.82 165.028C155.551 161.115 154.659 157.934 153.13 156.084L152.875 155.776C151.345 153.926 148.296 152.373 143.565 156.286L142.717 156.987Z" fill="#FF0A33"/>
<path d="M127.558 166.116C121.305 168.986 122.045 172.277 122.67 173.64L122.687 173.676L126.85 171.766C126.766 171.343 126.515 169.742 129.26 168.482L129.314 168.457C131.659 167.381 133.023 168.339 133.624 169.648L133.682 169.775C134.249 171.011 134.046 172.535 131.683 173.619L131.629 173.644C128.847 174.921 127.85 173.706 127.584 173.366L123.421 175.276L123.446 175.331C124.047 176.639 126.17 179.252 132.278 176.449L133.314 175.974C138.894 173.413 138.853 170.109 137.852 167.928L137.685 167.565C136.684 165.383 134.138 163.097 128.558 165.657L127.558 166.116Z" fill="#FF0A33"/>
<path d="M109.565 172.049L104.432 173.105L111.205 177.735L107.209 183.519L112.047 182.523L115.451 177.433L116.318 181.645L120.686 180.746L118.517 170.206L114.149 171.105L115.145 175.944L109.565 172.049Z" fill="#FF0A33"/>
<path d="M93.257 178.282C93.2218 177.003 94.726 175.681 97.1051 175.615C98.6245 175.573 99.0819 176.201 99.0979 176.781L99.0985 176.801C99.1155 177.421 98.6412 177.634 97.5066 177.845L93.2664 178.622L93.257 178.282ZM93.0462 174.987C92.8582 173.972 92.1658 173.53 91.3062 173.554L87.6875 173.654L87.7679 176.573L88.3477 176.557C88.8075 176.544 88.9135 176.761 88.9223 177.081L89.0357 181.199C89.0786 182.759 89.5313 184.667 95.7689 184.495L96.8685 184.465C102.866 184.3 103.225 182.069 103.186 180.65L103.185 180.61L99.0464 180.724C98.9963 181.085 98.9195 181.928 96.2605 182.001L96.1605 182.004C93.5415 182.076 93.3484 181.601 93.3373 181.201C93.328 180.861 93.5035 180.696 94.0017 180.623L98.9072 180.027C102.118 179.639 103.391 178.664 103.337 176.684L103.333 176.544C103.282 174.705 101.857 173.064 98.238 173.163L97.9781 173.17C94.8193 173.257 93.4901 174.394 93.0462 174.987Z" fill="#FF0A33"/>
<path d="M77.6306 171.948L73.3032 170.869L72.122 175.604L69.1505 169.833L64.0663 168.564L67.8437 175.567L62.0634 179.155L66.8565 180.35L71.7299 177.176L70.6987 181.309L75.0261 182.388L76.0573 178.255L78.8684 183.347L83.6615 184.543L80.2436 178.66L86.8675 174.253L81.7833 172.984L76.4494 176.683L77.6306 171.948Z" fill="#FF0A33"/>
<path d="M62.7042 162.686L59.3622 160.676C57.6998 159.676 56.3171 160.034 54.4018 161.239L43.6514 168.17L47.4903 170.479L54.1221 165.972L53.3345 173.994L57.4477 176.469L58.1153 165.387C58.1606 164.691 58.161 164.341 58.2744 164.152C58.3878 163.964 58.5354 163.913 58.8953 164.129L61.0547 165.428L62.7042 162.686Z" fill="#FF0A33"/>
<path d="M45.9537 153.195C45.2024 153.392 44.092 153.913 43.5691 154.518L41.6736 156.713L45.3215 159.863L47.6091 157.214L46.0349 155.855C46.5159 155.451 47.1874 155.132 47.8761 154.855L45.9537 153.195Z" fill="#FF0A33"/>
<path d="M37.8745 149.361L35.1514 145.829L28.974 150.592L25.5305 146.125L31.7079 141.362L28.9848 137.83L20.4632 144.4L29.3528 155.931L37.8745 149.361Z" fill="#FF0A33"/>
<path d="M23.6952 127.055C20.978 120.996 17.7339 121.29 15.4711 122.304L15.1426 122.452C12.9163 123.45 10.6455 125.718 13.3299 131.704L13.911 132.999C16.4645 138.693 19.7709 138.832 22.0338 137.817L22.3623 137.67C24.6251 136.655 26.8216 134.026 24.2681 128.332L23.6952 127.055ZM21.3356 128.88C22.5796 131.654 21.5364 133.043 20.3868 133.558L20.2955 133.599C19.0546 134.156 17.4699 133.946 16.2259 131.172L16.2177 131.154C14.9901 128.416 15.8973 127.067 17.12 126.519L17.2113 126.478C18.3609 125.962 20.0916 126.107 21.3356 128.88Z" fill="#FF0A33"/>
<path d="M7.28732 110.457L11.4718 109.773C11.5923 110.139 11.8297 110.971 11.9491 111.702C12.3073 113.892 12.0907 114.799 10.7288 115.022L8.10367 115.451L8.82322 119.853L12.1589 119.307C15.5341 118.756 15.6931 116.257 15.0704 112.448C14.8155 110.888 14.4148 109.677 14.2746 109.315L17.9064 108.721L17.1868 104.32L6.56777 106.056L7.28732 110.457Z" fill="#FF0A33"/>
<path d="M8.09781 93.0331C8.21548 90.7761 8.9487 89.7729 10.1028 89.5327L9.72791 96.7229C8.60716 96.324 7.98014 95.29 8.09677 93.053L8.09781 93.0331ZM13.27 85.2518L13.0409 89.6458C13.2974 89.7193 14.3909 90.257 14.2368 93.2129L14.2357 93.2329C14.1077 95.6896 13.2126 96.7244 11.9407 96.9184L12.5541 85.1544L11.8151 85.1159C9.19862 84.9795 5.96253 85.9723 5.63348 92.2837L5.56996 93.5021C5.26694 99.3142 7.83795 101.09 10.5942 101.234L11.0336 101.257C13.8498 101.404 16.6219 99.7059 16.9208 93.9737L16.9802 92.8353C17.3144 86.424 14.748 85.3289 13.2899 85.2528L13.27 85.2518Z" fill="#FF0A33"/>
<path d="M19.0166 74.777L19.6452 72.6688L14.9311 67.1309L20.7767 68.8739L22.0511 64.5998L11.7397 61.5253L10.2482 66.5276L15.0373 72.234L7.92801 74.3091L6.38503 79.484L16.6964 82.5585L17.8851 78.5719L11.9819 76.8118L19.0166 74.777Z" fill="#FF0A33"/>
<path d="M27.8454 61.8841L29.8972 58.5674C30.9178 56.9176 30.5765 55.5305 29.3953 53.6004L22.5996 42.7644L20.2427 46.5743L24.6661 53.2617L16.6547 52.3741L14.1294 56.4562L25.2017 57.2618C25.8973 57.3159 26.2472 57.3206 26.4343 57.4364C26.6214 57.5521 26.6708 57.7003 26.4498 58.0575L25.1241 60.2005L27.8454 61.8841Z" fill="#FF0A33"/>
<path d="M43.2756 27.3434C41.4782 25.7531 38.3285 24.7555 34.2598 29.354L33.5044 30.2078C29.0515 35.2406 30.9364 38.0299 32.0149 38.9841L32.0598 39.0239L35.0947 35.5938C34.6966 35.108 33.8233 33.8012 35.851 31.5095L35.8907 31.4646C37.2028 29.9817 38.275 29.6753 39.3241 30.1495L35.7326 34.2088L37.7098 35.9581L41.2881 31.9139C41.9465 32.9504 41.7298 34.0405 40.4443 35.4934L40.4045 35.5384C38.4298 37.7702 36.9319 37.1392 36.4128 36.76L33.3779 40.1901L33.4079 40.2167C34.5313 41.2106 37.4666 42.8731 42.0256 37.7204L42.7545 36.8966C46.9557 32.1483 45.3727 29.1988 43.5752 27.6085L43.2756 27.3434Z" fill="#FF0A33"/>
<path d="M53.3802 28.653L57.2555 26.4453L53.3944 19.668L57.3043 17.4404L55.8391 14.8685L44.1439 21.5314L45.6091 24.1033L49.5191 21.8757L53.3802 28.653Z" fill="#FF0A33"/>
<path d="M71.9438 20.3594C78.2522 18.2873 78.2982 15.0304 77.5243 12.6742L77.412 12.3322C76.6505 10.014 74.6313 7.51956 68.3989 9.56661L67.0498 10.0097C61.1214 11.9569 60.639 15.2309 61.4128 17.5871L61.5252 17.9291C62.2991 20.2853 64.6853 22.7434 70.6137 20.7962L71.9438 20.3594ZM70.3738 17.8226C67.4856 18.7712 66.2132 17.5893 65.82 16.3922L65.7888 16.2972C65.3644 15.0051 65.7381 13.4509 68.6263 12.5022L68.6453 12.496C71.4955 11.5598 72.7432 12.6026 73.1613 13.8757L73.1925 13.9707C73.5857 15.1677 73.262 16.874 70.3738 17.8226Z" fill="#FF0A33"/>
<path d="M95.6479 16.8772L100.882 17.123L95.4651 10.9621L100.768 6.34576L95.833 6.11402L91.2761 10.2048L91.4778 5.9095L87.0227 5.70028L86.5179 16.4484L90.973 16.6577L91.2048 11.7231L95.6479 16.8772Z" fill="#FF0A33"/>
<path d="M109.097 12.1842C109.385 10.8348 110.852 9.71683 113.57 10.2985L113.668 10.3194C116.484 10.922 116.974 12.4584 116.685 13.8079L116.668 13.8861C116.396 15.1573 115.3 16.4568 112.484 15.8541L112.386 15.8332C109.726 15.2641 108.8 13.5728 109.08 12.2624L109.097 12.1842ZM105.844 6.06832L102.806 20.2669L107.168 21.2001L108.272 16.037C108.541 16.5035 110.012 18.2295 113.141 18.8991L113.454 18.9661C118.304 20.0039 120.508 17.7347 121.098 14.9772L121.178 14.6056C121.797 11.7111 120.723 8.98613 115.951 7.96505L115.599 7.88972C112.411 7.2076 110.441 8.19716 109.883 8.50743L110.206 7.00152L105.844 6.06832Z" fill="#FF0A33"/>
<path d="M122.617 25.4482L126.11 27.183C127.847 28.0459 129.197 27.5772 131.009 26.2218L141.166 18.4487L137.154 16.456L130.907 21.4816L131.046 13.4224L126.747 11.2873L126.973 22.3865C126.984 23.0842 127.012 23.4329 126.914 23.63C126.816 23.827 126.673 23.89 126.297 23.7032L124.04 22.5822L122.617 25.4482Z" fill="#FF0A33"/>
<path d="M141.614 32.0766L145.153 34.7901L149.899 28.5998L153.47 31.3377L155.271 28.9886L144.589 20.7994L142.788 23.1485L146.359 25.8863L141.614 32.0766Z" fill="#FF0A33"/>
<path d="M156.884 44.6193C161.186 49.6773 164.219 48.4892 166.108 46.8825L166.382 46.6493C168.241 45.0684 169.787 42.2564 165.537 37.2594L164.617 36.1777C160.575 31.4244 157.361 32.2148 155.472 33.8215L155.198 34.0548C153.308 35.6615 151.934 38.7996 155.977 43.5529L156.884 44.6193ZM158.639 42.2072C156.67 39.8915 157.284 38.2669 158.243 37.4506L158.32 37.3858C159.355 36.5047 160.936 36.2634 162.905 38.5791L162.918 38.5943C164.862 40.8796 164.368 42.4287 163.347 43.2969L163.271 43.3617C162.311 44.178 160.609 44.5229 158.639 42.2072Z" fill="#FF0A33"/>
<path d="M175.979 46.2673L167.85 52.8374L169.245 55.1258L178.81 50.9126L175.979 46.2673ZM168.936 56.5789L166.417 52.446L163.429 54.2675L165.948 58.4004L168.936 56.5789Z" fill="#FF0A33"/>
<path d="M176.727 63.0262L174.174 63.5165L178.817 87.6947L181.371 87.2043L176.727 63.0262Z" fill="#FF0A33"/>
</svg>
